/* XPM */
static char * add_transformation_rules24x24_xpm[] = {
"24 24 101 2",
"  	c None",
". 	c #FFFFFF",
"+ 	c #FEFEFE",
"@ 	c #2626CC",
"# 	c #9999E7",
"$ 	c #3131CE",
"% 	c #A5A5E9",
"& 	c #EAEAFA",
"* 	c #4C4CD4",
"= 	c #5858D7",
"- 	c #3E3ED1",
"; 	c #4B4BD4",
"> 	c #5757D7",
", 	c #6B6BDC",
"' 	c #FDFDFD",
") 	c #EFEFEF",
"! 	c #565656",
"~ 	c #BEBEBE",
"{ 	c #636363",
"] 	c #1D1D1D",
"^ 	c #F1F1F1",
"/ 	c #EBEBEB",
"( 	c #2E2E2E",
"_ 	c #000000",
": 	c #0B0B0B",
"< 	c #6B6B6B",
"[ 	c #090909",
"} 	c #878787",
"| 	c #121212",
"1 	c #3C3C3C",
"2 	c #0F0F0F",
"3 	c #3E3E3E",
"4 	c #9F9F9F",
"5 	c #0C0C0C",
"6 	c #101010",
"7 	c #080808",
"8 	c #C8C8C8",
"9 	c #0A0A0A",
"0 	c #979797",
"a 	c #777777",
"b 	c #7E7E7E",
"c 	c #7F7F7F",
"d 	c #666666",
"e 	c #646464",
"f 	c #7A7A7A",
"g 	c #787878",
"h 	c #C0C0C0",
"i 	c #DEDEDE",
"j 	c #020202",
"k 	c #8F8F8F",
"l 	c #E0E0E0",
"m 	c #030303",
"n 	c #EAEAEA",
"o 	c #DDDDDD",
"p 	c #E4E4E4",
"q 	c #00000D",
"r 	c #676586",
"s 	c #CFCFCF",
"t 	c #F2F2F2",
"u 	c #FEFEFF",
"v 	c #8F8EA5",
"w 	c #DEDDF8",
"x 	c #FFFFFE",
"y 	c #EDEDED",
"z 	c #0000FF",
"A 	c #6E66FE",
"B 	c #D2D2D2",
"C 	c #F7F6FE",
"D 	c #0E01FF",
"E 	c #0A00FF",
"F 	c #9A95FF",
"G 	c #453CFF",
"H 	c #190EFF",
"I 	c #7D76FF",
"J 	c #E2E2E2",
"K 	c #1409FF",
"L 	c #7A74FF",
"M 	c #1A0FFF",
"N 	c #291EFF",
"O 	c #1308FF",
"P 	c #1C11FF",
"Q 	c #F2F1FF",
"R 	c #1C10FF",
"S 	c #7F79FF",
"T 	c #F0EFFF",
"U 	c #1F14FF",
"V 	c #6A63FF",
"W 	c #9C97FF",
"X 	c #0900FF",
"Y 	c #E2E1FF",
"Z 	c #C3C0FF",
"` 	c #9C98FF",
" .	c #6C65FF",
"..	c #281DFF",
"+.	c #EFEFFF",
"@.	c #FBFAFF",
"#.	c #DCDAFF",
"$.	c #E0DFFF",
"%.	c #F6F6FF",
"&.	c #EEEDFF",
"*.	c #DFDDFF",
". . . . . . . . . . . . . . . . . . . . . . . . ",
". . . . . . . . . . . . . . . . . . . . . . . . ",
". . + . . + . . . . . . . . . . . . . . . . . . ",
". . . @ # . . . . . . . . . . . . . . . . . . . ",
". . . $ % . . + . . . . . . . . . . . . . . . . ",
"& * = - ; > , . . . . . . . . . . . . . . . . . ",
"& * = - ; > , . . . . . . . . . . . . . . . . . ",
". . . $ % . . + . + . . . . . . . . . . . . . . ",
". . . @ # . . . + . + + . . . . . . . . . . . . ",
". . + . . + . . . ' . . . . . . . . . . . . . . ",
". . . . . . . . . + . . . . . . . . . . . . . . ",
". . . . . . . . + . + . . . . . . . + . . . . . ",
". . + ' ) . . . . . . . . . . . . . + ! ~ . . . ",
". . . { ] ^ . . . . . + . + . . . + / ( _ . + . ",
". + . : < / + . . . . . ( . + . . . [ } | 1 . . ",
"+ . 2 3 4 _ . + . . . . 5 { . + . ^ 6 . . 7 ' . ",
". 8 _ . . 9 0 . . ) a b c _ d . . 9 0 . . e f . ",
". g h . . ^ 6 . + i _ _ _ j _ . k _ . + + l m n ",
"o _ p . . . q r . . . . s _ t u v w x u . . . . ",
"y h . . u x z z A . . . _ B . C D E F . . . . . ",
". . + . . G H I z . u . J . x K L M N . u . . . ",
". . . . . O . . N P . u u . Q R . . z S . . . . ",
". . . T U V . . W X Y . . Z z ` . .  ...+.. . . ",
". . . @.#.u u u . $.%.. . &.*.. u u u #.@.. . . "};
