/* XPM */
static char * add_translation_rules_xpm[] = {
"32 32 21 1",
" 	c None",
".	c #FFFFFF",
"+	c #000000",
"@	c #4040D2",
"#	c #F3F3F3",
"$	c #676767",
"%	c #121212",
"&	c #030303",
"*	c #FEFEFE",
"=	c #4E4E4E",
"-	c #1E1E1E",
";	c #BDBDBD",
">	c #F9F9F9",
",	c #B6B6B6",
"'	c #F5F5F5",
")	c #010101",
"!	c #131313",
"~	c #BEBEBE",
"{	c #545454",
"]	c #E5E5E5",
"^	c #535353",
"................................",
"................................",
"................................",
"................................",
"................................",
"................................",
"................................",
"................................",
"................................",
"................................",
"................................",
"................................",
"................................",
"............++..................",
"............++..................",
"............++..................",
"....@@.....++++++........++#$%&.",
"....@@.....++++++.**.....++=+++.",
"....@@......++...........++-;>..",
".@@@@@@@@...++...........++,....",
".@@@@@@@@...++...........++'....",
"....@@......++...........++.....",
"....@@......)+*..........++.....",
"....@@......!+~*.........++.....",
"............{++++........++.....",
"............]^%)+........++.....",
"................................",
"................................",
"................................",
"................................",
"................................",
"................................"};
