/* XPM */
static char * add_vocable_attribute_definitions24x24_xpm[] = {
"24 24 131 2",
"  	c None",
". 	c #FFFFFF",
"+ 	c #EEEEEE",
"@ 	c #FEFEFE",
"# 	c #3A3A3A",
"$ 	c #454545",
"% 	c #FAFAFA",
"& 	c #999999",
"* 	c #323232",
"= 	c #2A2A2A",
"- 	c #909090",
"; 	c #FDFDFD",
"> 	c #808080",
", 	c #070707",
"' 	c #C6C6C6",
") 	c #CECECE",
"! 	c #060606",
"~ 	c #9B9B9B",
"{ 	c #DFDFDF",
"] 	c #000000",
"^ 	c #1C1C1C",
"/ 	c #171717",
"( 	c #A4A4A4",
"_ 	c #F4F4F4",
": 	c #818181",
"< 	c #7E7E7E",
"[ 	c #F5F5F5",
"} 	c #D4D4D4",
"| 	c #535353",
"1 	c #2C2C2C",
"2 	c #606060",
"3 	c #363636",
"4 	c #F2F2F2",
"5 	c #F0F0F0",
"6 	c #292929",
"7 	c #727272",
"8 	c #F9F9F9",
"9 	c #737373",
"0 	c #1E1E1E",
"a 	c #0E0E0E",
"b 	c #D5D5D5",
"c 	c #DDDDDD",
"d 	c #CBCBCB",
"e 	c #474747",
"f 	c #1B1B1B",
"g 	c #1F1F1F",
"h 	c #0F0F0F",
"i 	c #F3F3F3",
"j 	c #313131",
"k 	c #868686",
"l 	c #4F4F4F",
"m 	c #3C3C3C",
"n 	c #5B5B5B",
"o 	c #545454",
"p 	c #888888",
"q 	c #111111",
"r 	c #040404",
"s 	c #8C8C8C",
"t 	c #2B2B2B",
"u 	c #030303",
"v 	c #1A1A1A",
"w 	c #232323",
"x 	c #2626CC",
"y 	c #9999E7",
"z 	c #D6D6D6",
"A 	c #E5E5E5",
"B 	c #404040",
"C 	c #272727",
"D 	c #8F8F8F",
"E 	c #959595",
"F 	c #3131CE",
"G 	c #A5A5E9",
"H 	c #EAEAFA",
"I 	c #4C4CD4",
"J 	c #5858D7",
"K 	c #3E3ED1",
"L 	c #4B4BD4",
"M 	c #5757D7",
"N 	c #6B6BDC",
"O 	c #8E8E8E",
"P 	c #B8B8B8",
"Q 	c #7F7F7F",
"R 	c #2E2E2E",
"S 	c #161616",
"T 	c #898989",
"U 	c #202020",
"V 	c #BDBDBD",
"W 	c #8A8A8A",
"X 	c #848484",
"Y 	c #A7A7A7",
"Z 	c #FCFCFC",
"` 	c #121212",
" .	c #383838",
"..	c #0D0D0D",
"+.	c #5F5F5F",
"@.	c #333333",
"#.	c #E4E4E4",
"$.	c #505050",
"%.	c #090909",
"&.	c #C5C5C5",
"*.	c #A0A0A0",
"=.	c #9D9D9D",
"-.	c #6D6D6D",
";.	c #373737",
">.	c #0B0B0B",
",.	c #878787",
"'.	c #2D2D2D",
").	c #7C7C7C",
"!.	c #1D1D1D",
"~.	c #242424",
"{.	c #494949",
"].	c #F1F1F1",
"^.	c #D7D7D7",
"/.	c #5C5C5C",
"(.	c #F6F6F6",
"_.	c #9A9A9A",
":.	c #797979",
"<.	c #3F3F3F",
"[.	c #E3E3E3",
"}.	c #181818",
"|.	c #686868",
"1.	c #7D7D7D",
"2.	c #484848",
"3.	c #F8F8F8",
"4.	c #858585",
"5.	c #0C0C0C",
"6.	c #141414",
"7.	c #ACACAC",
"8.	c #757575",
"9.	c #101010",
"0.	c #BEBEBE",
". . + . . . . . . . . . . . . . . . . . . . . . ",
". @ . @ @ . . @ @ @ @ . . @ @ . . . . . . . . . ",
". . . . . # # . . . . $ $ . . . . . % & * = - ; ",
". . . . . > , ' . . ) ! ~ . @ . . . { ] ^ / ] ( ",
". . . . . _ ] : . . < , . . . . . @ [ } . . | 1 ",
". . . . @ . 2 3 4 5 6 7 . @ . . . @ 8 9 1 0 a , ",
". . . . . . b ] c d ] c . . . . . . e ] f g h ] ",
". . . . . @ i j k l m _ @ . . . . . ] n . . o ] ",
". . @ . . @ . p q r s . . . . . . . t u ^ v w ] ",
". . . x y . . b 1 1 z . . . . . . . A B C D E ^ ",
". . . F G . . . . . . @ . . . . . @ . . . . . . ",
"H I J K L M N . . . . . . . . . . . . . . . . . ",
"H I J K L M N . . . @ . . . . . . . . @ @ . . . ",
". . . F G . . . O O . . . . . . . . . @ . P k Q ",
". . . x y . . . ^ ^ . . . . . . . . . . & u ] ] ",
". . @ . . . . . 0 0 . . . . . . . . . . R S [ . ",
". . @ . b T s 5 U 0 . @ . V W X Y Z 5 Q a h W Q ",
". . . c ` ] ]  ...0 . . +.] ] ] ] @.#.] ] ] ] ] ",
". . . $.%.&.. X u 0 . *.] > Z . =.] > . U U . . ",
". . . ] -.. . . v 0 . ;.>.: : > ,...'.. 0 0 . . ",
". . . ] ).. . . !.0 . ~.] ] ] ] ] ] q . 0 0 . . ",
". . . 0 {.].. ^.` 0 . /.` i . . . . (.. 0 0 . . ",
". . . _.] | :.<.u 0 . [.^ }.|.1.9 2.0 . 0 0 . . ",
". . . 3.4.5.6.7.^ 0 . . A 8.f ] 9.$.0.. 0 0 . . "};
