/* XPM */
static char * add_translation_rules24x24_xpm[] = {
"24 24 41 1",
" 	c None",
".	c #FFFFFF",
"+	c #DEDEDE",
"@	c #EFEFEF",
"#	c #000000",
"$	c #777777",
"%	c #FEFEFE",
"&	c #868686",
"*	c #2626CC",
"=	c #9999E7",
"-	c #0E0E0E",
";	c #010101",
">	c #0F0F0F",
",	c #CACACA",
"'	c #3D3D3D",
")	c #3131CE",
"!	c #A5A5E9",
"~	c #969696",
"{	c #3F3F3F",
"]	c #808080",
"^	c #8E8E8E",
"/	c #E0E0E0",
"(	c #1B1B1B",
"_	c #5B5B5B",
":	c #EAEAFA",
"<	c #4C4CD4",
"[	c #5858D7",
"}	c #3E3ED1",
"|	c #4B4BD4",
"1	c #5757D7",
"2	c #6B6BDC",
"3	c #878787",
"4	c #7F7F7F",
"5	c #DBDBDB",
"6	c #818181",
"7	c #636363",
"8	c #545454",
"9	c #DFDFDF",
"0	c #F2F2F2",
"a	c #979797",
"b	c #6F6F6F",
"........................",
"........................",
"........................",
"........................",
"........................",
"........................",
"........................",
"........................",
"........................",
".........+@.............",
".........#$.............",
"..%..%.%.#&..%..........",
"...*=...-;##>.%...+#,'#+",
"...)!...~#{]^.%.../#(_$@",
":<[}|12..#]..%.%../#3...",
":<[}|12..#4......./#5...",
"...)!..%.#6.%...../#/%..",
"...*=....#7..%..../#/...",
"..%..%...8##>.....9#9...",
".........0a]^.....@b@...",
"........%....%..........",
"........................",
"........................",
"........................"};
