/* XPM */
static char * add_vocable_attribute_definitions_xpm[] = {
"32 32 118 2",
"  	c None",
". 	c #FFFFFF",
"+ 	c #EBEBEB",
"@ 	c #070707",
"# 	c #030303",
"$ 	c #E7E7E7",
"% 	c #F4F4F4",
"& 	c #0F0F0F",
"* 	c #161616",
"= 	c #FAFAFA",
"- 	c #BABABA",
"; 	c #4B4B4B",
"> 	c #090909",
", 	c #393939",
"' 	c #BCBCBC",
") 	c #585858",
"! 	c #000000",
"~ 	c #8E8E8E",
"{ 	c #9C9C9C",
"] 	c #747474",
"^ 	c #050505",
"/ 	c #CCCCCC",
"( 	c #BEBEBE",
"_ 	c #323232",
": 	c #343434",
"< 	c #D7D7D7",
"[ 	c #545454",
"} 	c #CDCDCD",
"| 	c #F9F9F9",
"1 	c #E3E3E3",
"2 	c #252525",
"3 	c #D6D6D6",
"4 	c #3A3A3A",
"5 	c #EFEFEF",
"6 	c #1D1D1D",
"7 	c #8A8A8A",
"8 	c #7B7B7B",
"9 	c #666666",
"0 	c #FCFCFC",
"a 	c #8B8B8B",
"b 	c #303030",
"c 	c #0A0A0A",
"d 	c #060606",
"e 	c #EAEAEA",
"f 	c #212121",
"g 	c #FEFEFE",
"h 	c #F2F2F2",
"i 	c #0C0C0C",
"j 	c #F3F3F3",
"k 	c #717171",
"l 	c #565656",
"m 	c #C3C3C3",
"n 	c #979797",
"o 	c #626262",
"p 	c #121212",
"q 	c #A8A8A8",
"r 	c #F0F0F0",
"s 	c #F1F1F1",
"t 	c #676767",
"u 	c #C5C5C5",
"v 	c #B0B0B0",
"w 	c #F8F8F8",
"x 	c #DDDDDD",
"y 	c #575757",
"z 	c #242424",
"A 	c #282828",
"B 	c #515151",
"C 	c #4C4C4C",
"D 	c #4040D2",
"E 	c #888888",
"F 	c #525252",
"G 	c #101010",
"H 	c #606060",
"I 	c #F7F7F7",
"J 	c #767676",
"K 	c #202020",
"L 	c #040404",
"M 	c #6E6E6E",
"N 	c #181818",
"O 	c #FBFBFB",
"P 	c #010101",
"Q 	c #DEDEDE",
"R 	c #4F4F4F",
"S 	c #0B0B0B",
"T 	c #636363",
"U 	c #A3A3A3",
"V 	c #3F3F3F",
"W 	c #232323",
"X 	c #757575",
"Y 	c #ECECEC",
"Z 	c #1C1C1C",
"` 	c #4E4E4E",
" .	c #5A5A5A",
"..	c #2B2B2B",
"+.	c #C9C9C9",
"@.	c #C7C7C7",
"#.	c #9B9B9B",
"$.	c #3B3B3B",
"%.	c #777777",
"&.	c #B9B9B9",
"*.	c #B7B7B7",
"=.	c #373737",
"-.	c #CACACA",
";.	c #E4E4E4",
">.	c #F6F6F6",
",.	c #F5F5F5",
"'.	c #D3D3D3",
").	c #C8C8C8",
"!.	c #9E9E9E",
"~.	c #1E1E1E",
"{.	c #A1A1A1",
"].	c #E2E2E2",
"^.	c #D9D9D9",
"/.	c #9A9A9A",
"(.	c #6D6D6D",
"_.	c #646464",
":.	c #1B1B1B",
"<.	c #6A6A6A",
". . . + . . . . . . . . . . . . . . . . . . . . . . . . . . . . ",
". . . . . . . . . . . . . . . . . . . . . . . . . . . . . . . . ",
". . . . . . . . . . . . . . . . . . . . . . . . . . . . . . . . ",
". . . . . . . @ # $ . . . . % & * = . . . . . . . - ; & > , ' . ",
". . . . . . . ) ! ~ . . . . { ! ] . . . . . . . . ! ! ! ! ! ^ / ",
". . . . . . . ( ! _ . . . . : ! < . . . . . . . . [ } | 1 ) ! ) ",
". . . . . . . . 2 ! 3 . . } ! 4 . . . . . . . . . . . . . 5 ! 6 ",
". . . . . . . . 7 ! 8 . . 9 ! { . . . . . . . . 0 a b c ! ! ! d ",
". . . . . . . . e d f g h i i j . . . . . . . . k ! ! ! ! ! ! ! ",
". . . . . . . . . l ! m n ! o . . . . . . . . . p ! q r g s ! ! ",
". . . . . . . . . ' ! t b ! u . . . . . . . . . > ! v w x y ! ! ",
". . . . . . . . . g z @ ! A . . . . . . . . . . B ! ! ! ! C ! ! ",
". . . . D D . . . . E ! ! 7 . . . . . . . . . . + F c G H r ! ! ",
". . . . D D . . . . . . . . . . . . . . . . . . . . . . . . . . ",
". . . . D D . . . . . . . . . . . . . . . . . . . . . . . . . . ",
". D D D D D D D D . . . . . . . . . . . . . . . . . . . . . . . ",
". D D D D D D D D . . . . . . . . . . . . . . . . . . . . . . . ",
". . . . D D . . . . . . . . . . . . . . . . . . . . . . . . . . ",
". . . . D D . . . . . ! ! . . . . . . . . . . . . . . I J K L ! ",
". . . . D D . . . . . ! ! . . . . . . . . . . . . . . M ! ! ! ! ",
". . . . . . . . . . . ! ! . . . . . . . . . . . . . . N ! v O . ",
". . . . . . . . . . . ! ! . . . . . . . . . . . . . . P ! g . . ",
". . . . . Q R S & T j ! ! . . . . U V & d W X r . ! ! ! ! ! ! ! ",
". . . . Y Z ! ! ! ! ` ! ! . . g  .! ! ! ! ! ! ..s ! ! ! ! ! ! ! ",
". . . . J ! W +.| @.f ! ! . . #.! f v r = / $.! %.. . ! ! . . . ",
". . . . A ! &.. . . *.! ! . . =.! -.. . . . ;.! 2 . . ! ! . . . ",
". . . . @ ! >.. . . ,.! ! . . c ! ! ! ! ! ! ! ! ^ . . ! ! . . . ",
". . . . @ ! >.. . . ,.! ! . . > ! ! ! ! ! ! ! ! ! . . ! ! . . . ",
". . . . A ! &.. . . *.! ! . . : ! '.. . . . . . . . . ! ! . . . ",
". . . . J ! z +.= ).f ! ! . . !.! ~.{.].O w ^./., . . ! ! . . . ",
". . . . Y Z ! ! ! ! ` ! ! . . . (.! ! ! ! ! ! ! ! . . ! ! . . . ",
". . . . . Q ` S p _.h ! ! . . . . ' [ :.^ > ..<.+.. . ! ! . . . "};
