/* XPM */
static char * re_load_dictionary_xpm[] = {
"24 24 54 1",
" 	c None",
".	c #FFFFFF",
"+	c #000000",
"@	c #A7A7A7",
"#	c #222222",
"$	c #050505",
"%	c #FDFDFD",
"&	c #7D7D7D",
"*	c #181818",
"=	c #080808",
"-	c #4E4E4E",
";	c #EDEDED",
">	c #7A7A7A",
",	c #858585",
"'	c #777777",
")	c #F4F4F4",
"!	c #6C6C6C",
"~	c #5F5F5F",
"{	c #202020",
"]	c #EFEFEF",
"^	c #ECECEC",
"/	c #131313",
"(	c #040404",
"_	c #1C1C1C",
":	c #EBEBEB",
"<	c #7F7F7F",
"[	c #8A8A8A",
"}	c #E8E8E8",
"|	c #FAFAFA",
"1	c #CECECE",
"2	c #515151",
"3	c #FCFCFC",
"4	c #868686",
"5	c #1F1F1F",
"6	c #060606",
"7	c #434343",
"8	c #696969",
"9	c #F3F3F3",
"0	c #A0A0A0",
"a	c #0A0A0A",
"b	c #8F8F8F",
"c	c #676767",
"d	c #E4E4E4",
"e	c #191919",
"f	c #030303",
"g	c #E6E6E6",
"h	c #1B1B1B",
"i	c #959595",
"j	c #6F6F6F",
"k	c #A5A5A5",
"l	c #0C0C0C",
"m	c #262626",
"n	c #F0F0F0",
"o	c #6D6D6D",
"........................",
"........................",
"........................",
"...+@#$.%&*=-;..........",
"...+>;..,';)!~..........",
"...+....{]..^/..........",
"...+....(+++++..........",
"...+...._:..............",
"...+....<[}|12..........",
"...+....34567@..........",
"........................",
"........................",
"........................",
"......+++${8}...........",
"......++.90a{:..........",
"......++...b+c..........",
"......++...d+e..........",
"......++...|+f..........",
"......++...g+h..........",
"......++...i+j..........",
"......++.)klmn..........",
"......+++${o^...........",
"........................",
"........................"};
