/* XPM */
static char * remove_transformation_rules_xpm[] = {
"32 32 14 1",
" 	c None",
".	c #FFFFFF",
"+	c #FF0000",
"@	c #FEFEFE",
"#	c #FDFDFD",
"$	c #000000",
"%	c #101010",
"&	c #020202",
"*	c #3D3D3D",
"=	c #484848",
"-	c #0C00FF",
";	c #847EFF",
">	c #382FFF",
",	c #726CFF",
"................................",
"................................",
"................................",
"................................",
"................................",
"................................",
"................................",
".++++++++.......................",
".++++++++.......................",
"................................",
"................................",
"..............@.................",
"............#...................",
"............@...................",
"................................",
"................................",
"..........................$.....",
".....$...................$$$....",
"....$$$..................$.$....",
"....$.$.........$.......$$.$$...",
"...$$.$$........$$......$...$...",
"...$...$.........$$....$$...$$..",
"..$$...$$....$$$$$$$...$.....%..",
"..$.....$....$$$$$$$..$$.....&*.",
".$$.....$$.......$$...=.........",
".$......---.....$$...;->........",
"........----....$....----.......",
".......--.--........--.--.......",
".......-...--.......-...--......",
"......--...--......--...--......",
".....--.....-,....--.....--.....",
"................................"};
