/* XPM */
static char * resolve_superclasses_xpm[] = {
"32 32 83 1",
" 	c None",
".	c #FFFFFF",
"+	c #C5C5C5",
"@	c #808080",
"#	c #656565",
"$	c #666666",
"%	c #7B7B7B",
"&	c #A1A1A1",
"*	c #D5D5D5",
"=	c #FEFEFE",
"-	c #FBFBFB",
";	c #585858",
">	c #000000",
",	c #CFCFCF",
"'	c #969696",
")	c #040404",
"!	c #393939",
"~	c #474747",
"{	c #2F2F2F",
"]	c #050505",
"^	c #4A4A4A",
"/	c #B6B6B6",
"(	c #F3F3F3",
"_	c #A6A6A6",
":	c #E3E3E3",
"<	c #3E3E3E",
"[	c #A5A5A5",
"}	c #707070",
"|	c #2A2A2A",
"1	c #616161",
"2	c #989898",
"3	c #E0E0E0",
"4	c #E8E8E8",
"5	c #242424",
"6	c #010101",
"7	c #595959",
"8	c #F2F2F2",
"9	c #8C8C8C",
"0	c #3B3B3B",
"a	c #060606",
"b	c #626262",
"c	c #F7F7F7",
"d	c #C0C0C0",
"e	c #494949",
"f	c #121212",
"g	c #070707",
"h	c #535353",
"i	c #313131",
"j	c #8E8E8E",
"k	c #CACACA",
"l	c #E6E6E6",
"m	c #DADADA",
"n	c #696969",
"o	c #2D2D2D",
"p	c #9D9D9D",
"q	c #AFAFAF",
"r	c #454545",
"s	c #0B0B0B",
"t	c #1E1E1E",
"u	c #999999",
"v	c #FDFDFD",
"w	c #DFDFDF",
"x	c #C9C9C9",
"y	c #E1E1E1",
"z	c #D7D7D7",
"A	c #8F8F8F",
"B	c #EEEEEE",
"C	c #A8A8A8",
"D	c #A3A3A3",
"E	c #1B1B1B",
"F	c #7F7F7F",
"G	c #DCDCDC",
"H	c #373737",
"I	c #A7A7A7",
"J	c #0F0F0F",
"K	c #1C1C1C",
"L	c #2B2B2B",
"M	c #888888",
"N	c #DEDEDE",
"O	c #D1D1D1",
"P	c #B7B7B7",
"Q	c #EBEBEB",
"R	c #9B9B9B",
".............+@#$%&*=...........",
"...........-;>>>>>>>,...........",
"...........'>>)!~{]>,...........",
"...........^>>/...(_:...........",
"...........<>>[.................",
"...........}>>>|123.............",
"...........45>>>>>678...........",
"............(90a>>>>b...........",
"...............cde>>f...........",
"...........3.....3>>g...........",
"...........hijklmn>>o...........",
"...........h>>>>>>>>p...........",
"...........qrs>>>>tu............",
".............vwxxy..............",
"..........>>>>zAAAd........BAAAC",
"............>>D>fEF........GEE6H",
"...........>>>D>I.............JH",
"...........>.>D>I..>>>>>......JH",
"..........>..>D>I..>>.........JH",
".........>....D>I..>.>........JH",
".........>....D>I..>.>........JH",
"........>.....D>I..>..>.......JH",
".......>......D>I......>......JH",
"......>.......D>I.......>.....JH",
"......>.......D>I........>....JH",
".....>........D>I.........>...JH",
"....>.........D>I.........>...JH",
"...>..........D>I..........>..JH",
"...>..........D>I...........>.JH",
"..>...........D>I.............JH",
".>............D>KLM........NLL>H",
"..............OFFFP........QFFFR"};
