/* XPM */
static char * resolve_1parse_level24x24_xpm[] = {
"24 24 81 1",
" 	c None",
".	c #FFFFFF",
"+	c #FEFEFE",
"@	c #C7C7C7",
"#	c #868686",
"$	c #7D7D7D",
"%	c #AEAEAE",
"&	c #E2E2E2",
"*	c #ECECEC",
"=	c #373737",
"-	c #050505",
";	c #3B3B3B",
">	c #474747",
",	c #1A1A1A",
"'	c #060606",
")	c #C6C6C6",
"!	c #C8C8C8",
"~	c #000000",
"{	c #8A8A8A",
"]	c #010101",
"^	c #2D2D2D",
"/	c #404040",
"(	c #EEEEEE",
"_	c #B1B1B1",
":	c #BFBFBF",
"<	c #DFDFDF",
"[	c #757575",
"}	c #101010",
"|	c #CECECE",
"1	c #7A7A7A",
"2	c #111111",
"3	c #BDBDBD",
"4	c #FDFDFD",
"5	c #0F0F0F",
"6	c #121212",
"7	c #919191",
"8	c #1D1D1D",
"9	c #F5F5F5",
"0	c #F1F1F1",
"a	c #F6F6F6",
"b	c #EBEBEB",
"c	c #ADADAD",
"d	c #878787",
"e	c #2C2C2C",
"f	c #737373",
"g	c #343434",
"h	c #383838",
"i	c #7B7B7B",
"j	c #292929",
"k	c #FBFBFB",
"l	c #9A9A9A",
"m	c #0E0E0E",
"n	c #EAEAEA",
"o	c #EDEDED",
"p	c #303030",
"q	c #4F4F4F",
"r	c #DCDCDC",
"s	c #DDDDDD",
"t	c #D0D0D0",
"u	c #CACACA",
"v	c #393939",
"w	c #505050",
"x	c #1E1E1E",
"y	c #717171",
"z	c #6F6F6F",
"A	c #6E6E6E",
"B	c #8F8F8F",
"C	c #5F5F5F",
"D	c #B5B5B5",
"E	c #EFEFEF",
"F	c #F8F8F8",
"G	c #E5E5E5",
"H	c #202020",
"I	c #4A4A4A",
"J	c #FAFAFA",
"K	c #0A0A0A",
"L	c #0D0D0D",
"M	c #4E4E4E",
"N	c #E0E0E0",
"O	c #E4E4E4",
"P	c #DEDEDE",
"........................",
"........................",
"........................",
"........................",
".....................+..",
".............+..@#$%..+.",
"+.&.+.......&.*=-;>,')..",
".!~{.+......].^/(..._:..",
"<[}|1.......23~(..+..4..",
"..5..+......678.+.900a..",
"b@6.c.......6de...fghi..",
"4[~jk.......6lm.+.nopq..",
"+.^.+.krsssn}t~u....vw..",
".+.+..rxyzzAB.C6DEFGHI..",
"......sy......JB}KLKMN..",
"......sz......+..OP...+.",
"......sz.......+....+...",
".+....nA................",
"..52555B................",
"..5.....+...............",
"..5.....................",
"..5.....................",
"..~.....................",
"..&....................."};
