/* XPM */
static char * show_parse_rules24x24_xpm[] = {
"24 24 46 1",
" 	c None",
".	c #FFFFFF",
"+	c #000000",
"@	c #0018FF",
"#	c #DEDEDE",
"$	c #EFEFEF",
"%	c #777777",
"&	c #FEFEFE",
"*	c #5B5B5B",
"=	c #252525",
"-	c #080808",
";	c #333333",
">	c #BDBDBD",
",	c #0E0E0E",
"'	c #B2B2B2",
")	c #171717",
"!	c #CDCDCD",
"~	c #CACACA",
"{	c #3D3D3D",
"]	c #969696",
"^	c #212121",
"/	c #808080",
"(	c #8E8E8E",
"_	c #545454",
":	c #E0E0E0",
"<	c #1B1B1B",
"[	c #6E6E6E",
"}	c #E1E1E1",
"|	c #161616",
"1	c #878787",
"2	c #7B7B7B",
"3	c #F7F7F7",
"4	c #060606",
"5	c #DBDBDB",
"6	c #737373",
"7	c #DFDFDF",
"8	c #1D1D1D",
"9	c #929292",
"0	c #636363",
"a	c #AEAEAE",
"b	c #1E1E1E",
"c	c #0D0D0D",
"d	c #050505",
"e	c #464646",
"f	c #D2D2D2",
"g	c #6F6F6F",
"........................",
".....+++++..............",
"....+@@@@.+.............",
"..++@@++@@.+............",
".++.@@++@@.++...........",
"..+++@@@@.++............",
"....+++++++.............",
"........................",
"........................",
".........#$.............",
".........+%.............",
"..&..&.&.+*=-;>.........",
"........,+++,')!..#+~{+#",
"........]+^/(.]_..:+<*%$",
".........+[..&}|..:+1...",
".........+2...34..:+5...",
".......&.+6.&.78..:+:&..",
".........+{..&90..:+:...",
"..&..&...+++,ab#..7+7...",
".........+_cdef...$g$...",
"........&+...&..........",
".........+..............",
".........+..............",
"........................"};
