/* XPM */
static char * translate_bitmap_xpm[] = {
"40 40 60 1",
" 	c None",
".	c #FFFFFF",
"+	c #000000",
"@	c #020202",
"#	c #0A0A0A",
"$	c #1F1F1F",
"%	c #505050",
"&	c #B4B4B4",
"*	c #F8F8F8",
"=	c #CFCFCF",
"-	c #5A5A5A",
";	c #676767",
">	c #2D2D2D",
",	c #888888",
"'	c #E1E1E1",
")	c #585858",
"!	c #9F9F9F",
"~	c #1E1E1E",
"{	c #010101",
"]	c #3D3D3D",
"^	c #989898",
"/	c #EDEDED",
"(	c #CBCBCB",
"_	c #373737",
":	c #FEFEFE",
"<	c #C5C5C5",
"[	c #6F6F6F",
"}	c #1B1B1B",
"|	c #050505",
"1	c #4D4D4D",
"2	c #A8A8A8",
"3	c #F6F6F6",
"4	c #F7F7F7",
"5	c #C3C3C3",
"6	c #6D6D6D",
"7	c #1A1A1A",
"8	c #0C0C0C",
"9	c #0B0B0B",
"0	c #C4C4C4",
"a	c #6E6E6E",
"b	c #C9C9C9",
"c	c #363636",
"d	c #C6C6C6",
"e	c #707070",
"f	c #1C1C1C",
"g	c #4C4C4C",
"h	c #A7A7A7",
"i	c #F5F5F5",
"j	c #555555",
"k	c #9E9E9E",
"l	c #3C3C3C",
"m	c #979797",
"n	c #ECECEC",
"o	c #CECECE",
"p	c #575757",
"q	c #2C2C2C",
"r	c #878787",
"s	c #090909",
"t	c #515151",
"u	c #B5B5B5",
"........................................",
"........................................",
"........................................",
"........................................",
"........................................",
"........................................",
"........................................",
"........................................",
"........................................",
"........................................",
"........................................",
"........................................",
"........................................",
"..+++++++....................++@#$%&....",
"..++.........................++.*=-+;...",
"..++.............>,'.........++....)+!..",
"..++.............~+{]^/......++....(+_..",
"..+++++++........:<[}+|123...++....4+#..",
"..++.......++++.....:567+8...++....3+9..",
"..++.......++++.....:0a7+8...++....b+c..",
"..++.............:def+|ghi...++....j+k..",
"..++.............~+{lmn......++.*op+;...",
"..+++++++........qr'.........++{s$tu....",
"........................................",
"........................................",
"........................................",
"........................................",
"........................................",
"........................................",
"........................................",
"........................................",
"........................................",
"........................................",
"........................................",
"........................................",
"........................................",
"........................................",
"........................................",
"........................................",
"........................................"};
