/* XPM */
static char * translate_bitmap_xpm[] = {
"24 24 30 1",
" 	c None",
".	c #FFFFFF",
"+	c #000000",
"@	c #FEFEFE",
"#	c #020202",
"$	c #0A0A0A",
"%	c #1F1F1F",
"&	c #505050",
"*	c #B4B4B4",
"=	c #F8F8F8",
"-	c #CFCFCF",
";	c #5A5A5A",
">	c #676767",
",	c #585858",
"'	c #9F9F9F",
")	c #CBCBCB",
"!	c #373737",
"~	c #F7F7F7",
"{	c #F6F6F6",
"]	c #0B0B0B",
"^	c #C9C9C9",
"/	c #363636",
"(	c #555555",
"_	c #9E9E9E",
":	c #CECECE",
"<	c #575757",
"[	c #010101",
"}	c #090909",
"|	c #515151",
"1	c #B5B5B5",
"........................",
"........................",
"........................",
"...+++++++....+.........",
"...++.........++.@......",
"...++..........++.......",
"...++......+++++++......",
"...+++++++.....++@......",
"...++.........++........",
"...++.........+.........",
"...++...................",
"...++......++#$%&*......",
"...+++++++.++.=-;+>.....",
"...........++....,+'....",
"...........++....)+!....",
"...........++....~+$....",
"...........++....{+]....",
"...........++....^+/....",
"...........++....(+_....",
"...........++.=:<+>.....",
"...........++[}%|1......",
"........................",
"........................",
"........................"};
