/* XPM */
static char * add_grammar_rules24x24_xpm[] = {
"24 24 67 1",
" 	c None",
".	c #FFFFFF",
"+	c #FEFEFE",
"@	c #2626CC",
"#	c #9999E7",
"$	c #AFAFAF",
"%	c #101010",
"&	c #000000",
"*	c #636363",
"=	c #707070",
"-	c #DEDEDE",
";	c #CACACA",
">	c #3D3D3D",
",	c #3131CE",
"'	c #A5A5E9",
")	c #C6C6C6",
"!	c #303030",
"~	c #7A7A7A",
"{	c #525252",
"]	c #0E0E0E",
"^	c #E0E0E0",
"/	c #1B1B1B",
"(	c #5B5B5B",
"_	c #777777",
":	c #EFEFEF",
"<	c #EAEAFA",
"[	c #4C4CD4",
"}	c #5858D7",
"|	c #3E3ED1",
"1	c #4B4BD4",
"2	c #5757D7",
"3	c #6B6BDC",
"4	c #4C4C4C",
"5	c #0F0F0F",
"6	c #D9D9D9",
"7	c #F1F1F1",
"8	c #878787",
"9	c #232323",
"0	c #1D1D1D",
"a	c #7C7C7C",
"b	c #DBDBDB",
"c	c #2F2F2F",
"d	c #191919",
"e	c #6E6E6E",
"f	c #7B7B7B",
"g	c #8B8B8B",
"h	c #0B0B0B",
"i	c #363636",
"j	c #DFDFDF",
"k	c #EDEDED",
"l	c #949494",
"m	c #848484",
"n	c #C3C3C3",
"o	c #666666",
"p	c #121212",
"q	c #6F6F6F",
"r	c #6D6D6D",
"s	c #F9F9F9",
"t	c #A4A4A4",
"u	c #6B6B6B",
"v	c #222222",
"w	c #EAEAEA",
"x	c #DCDCDC",
"y	c #939393",
"z	c #828282",
"A	c #989898",
"B	c #E5E5E5",
"........................",
"........................",
"........................",
"........................",
"........................",
"........................",
"........................",
"........................",
"........................",
"........................",
"........................",
"..+..+..+......+........",
"...@#....$%&*=&...-&;>&-",
"...,'...)&!~{]&...^&/(_:",
"<[}|123.456.74&...^&8...",
"<[}|123.90...a&...^&b...",
"...,'...cd...e&...^&^+..",
"...@#...f&g.)5&...^&^...",
"..+..+...0&&hi&...j&j...",
".......+.klmnop...:q:...",
".........rs.t&u.........",
".........&&&&vw+........",
".........xyzAB.+........",
"........+..............."};
