/* XPM */
static char * add_grammar_rules_xpm[] = {
"32 32 62 1",
" 	c None",
".	c #FFFFFF",
"+	c #4040D2",
"@	c #DCDCDC",
"#	c #4D4D4D",
"$	c #0B0B0B",
"%	c #0E0E0E",
"&	c #626262",
"*	c #F2F2F2",
"=	c #000000",
"-	c #F3F3F3",
";	c #676767",
">	c #121212",
",	c #030303",
"'	c #EBEBEB",
")	c #191919",
"!	c #4E4E4E",
"~	c #747474",
"{	c #242424",
"]	c #C9C9C9",
"^	c #F9F9F9",
"/	c #232323",
"(	c #1E1E1E",
"_	c #BDBDBD",
":	c #272727",
"<	c #BABABA",
"[	c #B9B9B9",
"}	c #B6B6B6",
"|	c #070707",
"1	c #F6F6F6",
"2	c #F5F5F5",
"3	c #BBBBBB",
"4	c #737373",
"5	c #252525",
"6	c #CBCBCB",
"7	c #FAFAFA",
"8	c #E9E9E9",
"9	c #181818",
"0	c #4C4C4C",
"a	c #040404",
"b	c #C3C3C3",
"c	c #4B4B4B",
"d	c #0A0A0A",
"e	c #616161",
"f	c #DDDDDD",
"g	c #151515",
"h	c #9E9E9E",
"i	c #404040",
"j	c #4F4F4F",
"k	c #C5C5C5",
"l	c #F8F8F8",
"m	c #F0F0F0",
"n	c #A4A4A4",
"o	c #101010",
"p	c #939393",
"q	c #333333",
"r	c #B5B5B5",
"s	c #454545",
"t	c #0F0F0F",
"u	c #060606",
"v	c #757575",
"w	c #F1F1F1",
"................................",
"................................",
"................................",
"................................",
"................................",
"................................",
"................................",
"................................",
"................................",
"................................",
"................................",
"................................",
"................................",
"................................",
"................................",
"................................",
"....++......@#$%&*==.....==-;>,.",
"....++.....')====#==.....==!===.",
"....++.....~={]^]/==.....==(_^..",
".++++++++..:=<...[==.....==}....",
".++++++++..|=1...2==.....==2....",
"....++.....|=1...2==.....==.....",
"....++.....:=3...<==.....==.....",
"....++.....4=56765==.....==.....",
"...........89====0=a.....==.....",
"............bcd%ef=g.....==.....",
".................h=i............",
"............jklmno=p............",
"............======q^............",
"............rstu/vw.............",
"................................",
"................................"};
