/* XPM */
static char * grammar_part_colours_xpm[] = {
"32 32 755 2",
"  	c None",
". 	c #FFFFFF",
"+ 	c #FFFEFE",
"@ 	c #FFF9FD",
"# 	c #FFAFE8",
"$ 	c #FF6DC9",
"% 	c #FF3AA6",
"& 	c #FF107D",
"* 	c #FF0460",
"= 	c #FF044B",
"- 	c #FF103E",
"; 	c #FF3950",
"> 	c #FF6C71",
", 	c #FFAEAF",
"' 	c #FFF7F8",
") 	c #FFFEFF",
"! 	c #FFE5FD",
"~ 	c #FF6BEB",
"{ 	c #FF00C9",
"] 	c #FF00B9",
"^ 	c #FF00A5",
"/ 	c #FF008E",
"( 	c #FF0076",
"_ 	c #FF005E",
": 	c #FF0047",
"< 	c #FF0030",
"[ 	c #FF001A",
"} 	c #FF0007",
"| 	c #FF0000",
"1 	c #FF6A69",
"2 	c #FFE5E4",
"3 	c #FFFCFF",
"4 	c #FF7CFD",
"5 	c #FF00F0",
"6 	c #FF00E4",
"7 	c #FF00D3",
"8 	c #FF00C0",
"9 	c #FF00AB",
"0 	c #FF0092",
"a 	c #FF0079",
"b 	c #FF0060",
"c 	c #FF0048",
"d 	c #FF0019",
"e 	c #FF0005",
"f 	c #FF0900",
"g 	c #FF0E00",
"h 	c #FF8B78",
"i 	c #FFFCFB",
"j 	c #FFFAFF",
"k 	c #FF16FF",
"l 	c #FF00FF",
"m 	c #FF00F8",
"n 	c #FF00EB",
"o 	c #FF00D9",
"p 	c #FF00C5",
"q 	c #FF01AD",
"r 	c #FF0396",
"s 	c #FF047D",
"t 	c #FF0564",
"u 	c #FF054C",
"v 	c #FF0334",
"w 	c #FF021E",
"x 	c #FF0108",
"y 	c #FF0500",
"z 	c #FF1100",
"A 	c #FF2100",
"B 	c #FF3300",
"C 	c #FF4F13",
"D 	c #FFFAF8",
"E 	c #FFF3FF",
"F 	c #FF08FF",
"G 	c #FF00FB",
"H 	c #FF00EE",
"I 	c #FF03DB",
"J 	c #FF06C5",
"K 	c #FF0CAF",
"L 	c #FE1198",
"M 	c #FF1380",
"N 	c #FF1569",
"O 	c #FF1552",
"P 	c #FF143C",
"Q 	c #FE1126",
"R 	c #FF0C12",
"S 	c #FF0C06",
"T 	c #FF1403",
"U 	c #FF1F00",
"V 	c #FF2E00",
"W 	c #FF3E00",
"X 	c #FF4F00",
"Y 	c #FF6407",
"Z 	c #FFF6F0",
"` 	c #FEFEFF",
" .	c #FE08FF",
"..	c #FF00FE",
"+.	c #FF01F9",
"@.	c #FF06EA",
"#.	c #FF0FD8",
"$.	c #FF17C4",
"%.	c #FD1DAF",
"&.	c #F92199",
"*.	c #F72584",
"=.	c #F5276E",
"-.	c #F52759",
";.	c #F72544",
">.	c #F92131",
",.	c #FD1D20",
"'.	c #FF2016",
").	c #FF280F",
"!.	c #FF3207",
"~.	c #FF3F01",
"{.	c #FF4E00",
"].	c #FF5E00",
"^.	c #FF6E00",
"/.	c #FF8107",
"(.	c #FFFBF8",
"_.	c #FEFCFF",
":.	c #E816FF",
"<.	c #F200FF",
"[.	c #FC00FE",
"}.	c #FF02F8",
"|.	c #FF0BEF",
"1.	c #FF16E5",
"2.	c #FC1FD4",
"3.	c #F527C2",
"4.	c #EE2EAE",
"5.	c #E8339A",
"6.	c #E43686",
"7.	c #E33772",
"8.	c #E2375F",
"9.	c #E5354D",
"0.	c #E8323B",
"a.	c #EE2F2E",
"b.	c #F43326",
"c.	c #FB3B1E",
"d.	c #FF4415",
"e.	c #FF510A",
"f.	c #FF5F01",
"g.	c #FF6F00",
"h.	c #FF7F00",
"i.	c #FF8E00",
"j.	c #FFA212",
"k.	c #FFFDFB",
"l.	c #E57CFF",
"m.	c #D800FF",
"n.	c #E300FF",
"o.	c #EC00FE",
"p.	c #F302F8",
"q.	c #F50CED",
"r.	c #F618E4",
"s.	c #F424DA",
"t.	c #EE2DCE",
"u.	c #DF33B8",
"v.	c #902770",
"w.	c #4A1635",
"x.	c #1F0A14",
"y.	c #080204",
"z.	c #020001",
"A.	c #0B0304",
"B.	c #230A0B",
"C.	c #491514",
"D.	c #84281E",
"E.	c #CE4326",
"F.	c #F45722",
"G.	c #FC6316",
"H.	c #FF710A",
"I.	c #FF8101",
"J.	c #FF9100",
"K.	c #FFA000",
"L.	c #FFAC00",
"M.	c #FFD675",
"N.	c #F7E5FF",
"O.	c #B900FF",
"P.	c #C700FE",
"Q.	c #D100FF",
"R.	c #D801FA",
"S.	c #DE0BEF",
"T.	c #E019E4",
"U.	c #E225D8",
"V.	c #E031CE",
"W.	c #9D2A8C",
"X.	c #190816",
"Y.	c #000000",
"Z.	c #3B1B0B",
"`.	c #EE7421",
" +	c #FA8214",
".+	c #FF9106",
"++	c #FEA100",
"@+	c #FFB000",
"#+	c #FFBC00",
"$+	c #FFC300",
"%+	c #FFF8E2",
"&+	c #C96BFF",
"*+	c #A900FF",
"=+	c #B300FF",
"-+	c #BD00FD",
";+	c #C407F2",
">+	c #C816E6",
",+	c #CC24DA",
"'+	c #CD31CE",
")+	c #772371",
"!+	c #33162C",
"~+	c #7E3C66",
"{+	c #A4517B",
"]+	c #B25B7A",
"^+	c #AF5A6A",
"/+	c #A35157",
"(+	c #894141",
"_+	c #5D2D29",
":+	c #1E0F0C",
"<+	c #DF832A",
"[+	c #EB901C",
"}+	c #F6A00D",
"|+	c #FEB002",
"1+	c #FEC000",
"2+	c #FFCD00",
"3+	c #FFD500",
"4+	c #FFE965",
"5+	c #FCF8FF",
"6+	c #8700FF",
"7+	c #9500FE",
"8+	c #9F00FE",
"9+	c #A703F7",
"0+	c #AE0FEB",
"a+	c #B41FDE",
"b+	c #B72DD1",
"c+	c #852A8D",
"d+	c #020102",
"e+	c #733669",
"f+	c #B55DA2",
"g+	c #AF6297",
"h+	c #AC648B",
"i+	c #AA657E",
"j+	c #AA6572",
"k+	c #AC6467",
"l+	c #AF6561",
"m+	c #B3695D",
"n+	c #B87057",
"o+	c #845335",
"p+	c #22160B",
"q+	c #D19034",
"r+	c #DD9E22",
"s+	c #E9AD12",
"t+	c #F4BD05",
"u+	c #FECD00",
"v+	c #FFDA00",
"w+	c #FFE400",
"x+	c #FFE800",
"y+	c #FFFDF5",
"z+	c #D4AFFF",
"A+	c #7600FF",
"B+	c #8000FF",
"C+	c #8800FD",
"D+	c #9107F2",
"E+	c #9917E5",
"F+	c #9F27D6",
"G+	c #A034C4",
"H+	c #140817",
"I+	c #5E2F5D",
"J+	c #AA5EA3",
"K+	c #AA659C",
"L+	c #A66895",
"M+	c #A26A8B",
"N+	c #A06C80",
"O+	c #A06C74",
"P+	c #A26B6B",
"Q+	c #A56D68",
"R+	c #A87363",
"S+	c #AD7B5D",
"T+	c #B38355",
"U+	c #BB8E4B",
"V+	c #C49A3C",
"W+	c #D0A82A",
"X+	c #DCB816",
"Y+	c #E9C906",
"Z+	c #F6D800",
"`+	c #FEE600",
" @	c #FFF100",
".@	c #FFF500",
"+@	c #FFFCAB",
"@@	c #A46DFF",
"#@	c #6300FF",
"$@	c #6900FF",
"%@	c #7301FA",
"&@	c #7C0DED",
"*@	c #841EDF",
"=@	c #8C2ED1",
"-@	c #5F2880",
";@	c #190E1D",
">@	c #9A5CA3",
",@	c #9D659C",
"'@	c #9E6997",
")@	c #9D6D93",
"!@	c #99708B",
"~@	c #977281",
"{@	c #977277",
"]@	c #997170",
"^@	c #9B766D",
"/@	c #9F7C68",
"(@	c #A48462",
"_@	c #A98C5A",
":@	c #B09750",
"<@	c #BAA343",
"[@	c #C5B131",
"}@	c #D1C018",
"|@	c #DFD106",
"1@	c #ECE100",
"2@	c #F8F000",
"3@	c #FEFB00",
"4@	c #FEFE00",
"5@	c #FEFE6A",
"6@	c #753AFF",
"7@	c #4E00FF",
"8@	c #5300FE",
"9@	c #5D03F7",
"0@	c #6711E9",
"a@	c #7122DB",
"b@	c #7933CC",
"c@	c #2C1742",
"d@	c #4E325F",
"e@	c #8D62A0",
"f@	c #906899",
"g@	c #926D93",
"h@	c #93728E",
"i@	c #92758A",
"j@	c #8F7782",
"k@	c #8F7779",
"l@	c #917875",
"m@	c #947D71",
"n@	c #97846C",
"o@	c #9B8C66",
"p@	c #A1945F",
"q@	c #A99E54",
"r@	c #B1AA48",
"s@	c #BDB737",
"t@	c #CAC71C",
"u@	c #D7D606",
"v@	c #E3E500",
"w@	c #EDF200",
"x@	c #F4FC00",
"y@	c #F3FF00",
"z@	c #F4FE33",
"A@	c #4310FF",
"B@	c #3900FF",
"C@	c #3F00FE",
"D@	c #4805F5",
"E@	c #5315E6",
"F@	c #5E26D8",
"G@	c #6837C9",
"H@	c #100A1B",
"I@	c #654B86",
"J@	c #80649C",
"K@	c #836A96",
"L@	c #867190",
"M@	c #89758B",
"N@	c #8A7987",
"O@	c #897B82",
"P@	c #887B7B",
"Q@	c #8A7E78",
"R@	c #8D8475",
"S@	c #908A6F",
"T@	c #959168",
"U@	c #9C9961",
"V@	c #A2A358",
"W@	c #ABAC4B",
"X@	c #B3B83B",
"Y@	c #BEC522",
"Z@	c #C7D409",
"`@	c #D2E200",
" #	c #DCF000",
".#	c #E2FC00",
"+#	c #E2FF00",
"@#	c #E2FE0B",
"##	c #2804FF",
"$#	c #2500FF",
"%#	c #2A00FE",
"&#	c #3405F4",
"*#	c #4017E5",
"=#	c #4C28D6",
"-#	c #5739C7",
";#	c #030207",
">#	c #685899",
",#	c #74659B",
"'#	c #786C94",
")#	c #7B728E",
"!#	c #7E7789",
"~#	c #817B85",
"{#	c #827E81",
"]#	c #837F7E",
"^#	c #85837A",
"/#	c #888876",
"(#	c #8C8D70",
"_#	c #90936A",
":#	c #939A63",
"<#	c #98A259",
"[#	c #9EAB4D",
"}#	c #A5B73D",
"|#	c #ADC425",
"1#	c #B5D30B",
"2#	c #BEE100",
"3#	c #C5EF00",
"4#	c #CCFB00",
"5#	c #CDFF00",
"6#	c #CDFF01",
"7#	c #1604FF",
"8#	c #1100FF",
"9#	c #1600FE",
"0#	c #2205F4",
"a#	c #2E16E5",
"b#	c #3C28D6",
"c#	c #4839C7",
"d#	c #615CA1",
"e#	c #6A669B",
"f#	c #6F6C94",
"g#	c #74728E",
"h#	c #787889",
"i#	c #7A7C85",
"j#	c #7D7F82",
"k#	c #8EAB4D",
"l#	c #93B63D",
"m#	c #98C426",
"n#	c #9FD30B",
"o#	c #A5E100",
"p#	c #ABEF00",
"q#	c #B0FB00",
"r#	c #B3FF00",
"s#	c #B4FF00",
"t#	c #1310FF",
"u#	c #0200FF",
"v#	c #0500FE",
"w#	c #0F05F4",
"x#	c #1D15E6",
"y#	c #2C26D7",
"z#	c #3A37C8",
"A#	c #020207",
"B#	c #545698",
"C#	c #63679C",
"D#	c #6A6F96",
"E#	c #6E768F",
"F#	c #737C8B",
"G#	c #768186",
"H#	c #778484",
"I#	c #7BAC4B",
"J#	c #7CB83B",
"K#	c #80C523",
"L#	c #83D309",
"M#	c #86E200",
"N#	c #8AF000",
"O#	c #8FFB00",
"P#	c #93FF00",
"Q#	c #9BFE0A",
"R#	c #3A39FF",
"S#	c #0000FF",
"T#	c #0000FE",
"U#	c #0304F6",
"V#	c #1116E9",
"W#	c #2329DA",
"X#	c #323ACB",
"Y#	c #080A1A",
"Z#	c #424E82",
"`#	c #5D6D9F",
" $	c #637699",
".$	c #687C92",
"+$	c #6B838D",
"@$	c #6D878A",
"#$	c #6F8886",
"$$	c #6F887F",
"%$	c #6C8A77",
"&$	c #678C71",
"*$	c #65916C",
"=$	c #649766",
"-$	c #61AF48",
";$	c #60BB36",
">$	c #5FC81C",
",$	c #5DD606",
"'$	c #5DE500",
")$	c #5EF200",
"!$	c #62FC00",
"~$	c #69FF00",
"{$	c #8EFE33",
"]$	c #6D6BFF",
"^$	c #0001FF",
"/$	c #0003FF",
"($	c #010DF9",
"_$	c #0E1FEC",
":$	c #1D32DE",
"<$	c #2543D0",
"[$	c #101B40",
"}$	c #263758",
"|$	c #5275A3",
"1$	c #587D9B",
"2$	c #5D8496",
"3$	c #618A92",
"4$	c #638E8E",
"5$	c #668D88",
"6$	c #668D80",
"7$	c #628E78",
"8$	c #5B916F",
"9$	c #539567",
"0$	c #4E9A62",
"a$	c #3DB342",
"b$	c #31BF2F",
"c$	c #25CD13",
"d$	c #14DA02",
"e$	c #0BE800",
"f$	c #08F500",
"g$	c #11FD00",
"h$	c #21FF00",
"i$	c #89FE68",
"j$	c #AFAFFF",
"k$	c #0006FF",
"l$	c #0011FF",
"m$	c #001BFD",
"n$	c #082CF1",
"o$	c #113DE4",
"p$	c #154ED5",
"q$	c #113A7C",
"r$	c #050C12",
"s$	c #3F7CA3",
"t$	c #4886A1",
"u$	c #4D8D9A",
"v$	c #519297",
"w$	c #549392",
"x$	c #59928B",
"y$	c #599282",
"z$	c #559479",
"A$	c #4E976F",
"B$	c #419A64",
"C$	c #30A05B",
"D$	c #00BA39",
"E$	c #00C524",
"F$	c #00D20C",
"G$	c #00E000",
"H$	c #00ED00",
"I$	c #00F900",
"J$	c #00FE00",
"K$	c #00FF00",
"L$	c #ACFEA9",
"M$	c #F8F7FF",
"N$	c #000FFF",
"O$	c #0021FE",
"P$	c #002CFE",
"Q$	c #013BF6",
"R$	c #044BEA",
"S$	c #025BDD",
"T$	c #0164C6",
"U$	c #010A10",
"V$	c #0F3A49",
"W$	c #2B92A7",
"X$	c #3497A1",
"Y$	c #399B9D",
"Z$	c #419A96",
"`$	c #46998E",
" %	c #469984",
".%	c #419A79",
"+%	c #379D6E",
"@%	c #25A262",
"#%	c #08A755",
"$%	c #00C02D",
"%%	c #00CC14",
"&%	c #00D904",
"*%	c #00E600",
"=%	c #00F200",
"-%	c #00FC00",
";%	c #F5FEF4",
">%	c #6981FF",
",%	c #0034FF",
"'%	c #003EFF",
")%	c #004BFC",
"!%	c #005BF1",
"~%	c #006AE4",
"{%	c #0078D7",
"]%	c #005380",
"^%	c #014950",
"/%	c #039EA5",
"(%	c #0EA4A4",
"_%	c #1DA39B",
":%	c #24A192",
"<%	c #24A186",
"[%	c #1DA27A",
"}%	c #0FA66E",
"|%	c #02A960",
"1%	c #00AF52",
"2%	c #00C91A",
"3%	c #00D508",
"4%	c #00EC00",
"5%	c #00F800",
"6%	c #62FD61",
"7%	c #E3E9FF",
"8%	c #003DFF",
"9%	c #0050FE",
"0%	c #005DFF",
"a%	c #006CF8",
"b%	c #007AEC",
"c%	c #0088E1",
"d%	c #0094D5",
"e%	c #004B60",
"f%	c #001919",
"g%	c #006260",
"h%	c #008C84",
"i%	c #00A390",
"j%	c #00A887",
"k%	c #009F73",
"l%	c #008956",
"m%	c #006434",
"n%	c #002C12",
"o%	c #00D30A",
"p%	c #00DE01",
"q%	c #00E900",
"r%	c #00F400",
"s%	c #E0FEE0",
"t%	c #FEFEFE",
"u%	c #77A5FF",
"v%	c #0063FF",
"w%	c #006FFE",
"x%	c #007EFD",
"y%	c #008CF5",
"z%	c #009AEB",
"A%	c #00A5E0",
"B%	c #00AFD6",
"C%	c #007583",
"D%	c #001010",
"E%	c #001C06",
"F%	c #007708",
"G%	c #00DD01",
"H%	c #00E800",
"I%	c #00FB00",
"J%	c #70FD70",
"K%	c #FBFDFF",
"L%	c #137DFF",
"M%	c #0081FF",
"N%	c #0090FF",
"O%	c #009EFD",
"P%	c #00ACF4",
"Q%	c #00B7EB",
"R%	c #00C1E2",
"S%	c #00C7D9",
"T%	c #00C4C8",
"U%	c #00807E",
"V%	c #00423E",
"W%	c #001B18",
"X%	c #000605",
"Y%	c #000101",
"Z%	c #000C08",
"`%	c #002A17",
" &	c #005C28",
".&	c #00A234",
"+&	c #00D928",
"@&	c #00E003",
"#&	c #00F100",
"$&	c #00FA00",
"%&	c #0FFE10",
"&&	c #FAFEFA",
"*&	c #F8FBFF",
"=&	c #0795FF",
"-&	c #00A0FF",
";&	c #00B0FF",
">&	c #00BDFD",
",&	c #00C9F5",
"'&	c #00D2ED",
")&	c #00D8E6",
"!&	c #00DCDF",
"~&	c #00D9D4",
"{&	c #00D5C6",
"]&	c #00D3B6",
"^&	c #00D1A6",
"/&	c #00D295",
"(&	c #00D383",
"_&	c #00D56F",
":&	c #00D95A",
"<&	c #00DF40",
"[&	c #00E51F",
"}&	c #06FE06",
"|&	c #F6FFF5",
"1&	c #EFF8FF",
"2&	c #07B1FF",
"3&	c #00BDFF",
"4&	c #00CCFF",
"5&	c #00D9FD",
"6&	c #00E2F8",
"7&	c #00EAF1",
"8&	c #00ECEC",
"9&	c #00E7DD",
"0&	c #00E4CE",
"a&	c #00E1BE",
"b&	c #00E0AD",
"c&	c #00E09A",
"d&	c #00E186",
"e&	c #00E470",
"f&	c #00E75A",
"g&	c #00EC3E",
"h&	c #00F21C",
"i&	c #ECFEEB",
"j&	c #F7FCFF",
"k&	c #11CCFF",
"l&	c #00D6FE",
"m&	c #00E3FE",
"n&	c #00EFFE",
"o&	c #00F8FB",
"p&	c #00F8F4",
"q&	c #00F4E6",
"r&	c #00F1D6",
"s&	c #00EFC4",
"t&	c #00EEB2",
"u&	c #00EE9F",
"v&	c #00EF8A",
"w&	c #00F173",
"x&	c #00F45B",
"y&	c #00F83E",
"z&	c #00FB1E",
"A&	c #F5FFF6",
"B&	c #FBFEFF",
"C&	c #73ECFF",
"D&	c #00EAFF",
"E&	c #00F6FF",
"F&	c #00FEFE",
"G&	c #00FEF5",
"H&	c #00FDEA",
"I&	c #00FCDB",
"J&	c #00FBC9",
"K&	c #00FBB7",
"L&	c #00FBA2",
"M&	c #00FB8D",
"N&	c #00FC76",
"O&	c #00FD5D",
"P&	c #00FE43",
"Q&	c #00FF26",
"R&	c #00FE05",
"S&	c #6EFD71",
"T&	c #E2FDFF",
"U&	c #68FBFE",
"V&	c #00FFFD",
"W&	c #00FFF3",
"X&	c #00FFE8",
"Y&	c #00FFDA",
"Z&	c #00FFCA",
"`&	c #00FFB8",
" *	c #00FFA4",
".*	c #00FF8F",
"+*	c #00FF7A",
"@*	c #00FF63",
"#*	c #00FF49",
"$*	c #00FF25",
"%*	c #5FFD6D",
"&*	c #DFFEE0",
"**	c #F8FEFE",
"=*	c #B0FEFA",
"-*	c #70FDF0",
";*	c #37FEE0",
">*	c #0DFECB",
",*	c #00FFA5",
"'*	c #09FE96",
")*	c #31FE97",
"!*	c #66FEA5",
"~*	c #A9FEC4",
"{*	c #F3FEF7",
". . . . . . . . + . @ # $ % & * = - ; > , ' . + . . . . . . . . ",
". . . . . . ) . ! ~ { ] ^ / ( _ : < [ } | | 1 2 . + . . . . . . ",
". . . . . ) 3 4 5 6 7 8 9 0 a b c < d e | | f g h i . . . . . . ",
". . . ) . j k l m n o p q r s t u v w x | y z A B C D . + . . . ",
". . . . E F l l G H I J K L M N O P Q R S T U V W X Y Z . . . . ",
". . ` j  .l ....+.@.#.$.%.&.*.=.-.;.>.,.'.).!.~.{.].^./.(.. . . ",
". ` _.:.<.[...}.|.1.2.3.4.5.6.7.8.9.0.a.b.c.d.e.f.g.h.i.j.k.+ . ",
". . l.m.n.o.p.q.r.s.t.u.v.w.x.y.z.A.B.C.D.E.F.G.H.I.J.K.L.M.. . ",
"` N.O.P.Q.R.S.T.U.V.W.X.Y.Y.Y.Y.Y.Y.Y.Y.Y.Y.Z.`. +.+++@+#+$+%++ ",
". &+*+=+-+;+>+,+'+)+Y.Y.!+~+{+]+^+/+(+_+:+Y.Y.<+[+}+|+1+2+3+4+. ",
"5+6+7+8+9+0+a+b+c+Y.d+e+f+g+h+i+j+k+l+m+n+o+p+q+r+s+t+u+v+w+x+y+",
"z+A+B+C+D+E+F+G+H+Y.I+J+K+L+M+N+O+P+Q+R+S+T+U+V+W+X+Y+Z+`+ @.@+@",
"@@#@$@%@&@*@=@-@Y.;@>@,@'@)@!@~@{@]@^@/@(@_@:@<@[@}@|@1@2@3@4@5@",
"6@7@8@9@0@a@b@c@Y.d@e@f@g@h@i@j@k@l@m@n@o@p@q@r@s@t@u@v@w@x@y@z@",
"A@B@C@D@E@F@G@H@Y.I@J@K@L@M@N@O@P@Q@R@S@T@U@V@W@X@Y@Z@`@ #.#+#@#",
"##$#%#&#*#=#-#;#Y.>#,#'#)#!#~#{#]#^#/#(#_#:#<#[#}#|#1#2#3#4#5#6#",
"7#8#9#0#a#b#c#Y.Y.d#e#f#g#h#i#j#Y.Y.Y.Y.Y.Y.Y.k#l#m#n#o#p#q#r#s#",
"t#u#v#w#x#y#z#A#Y.B#C#D#E#F#G#H#Y.Y.Y.Y.Y.Y.Y.I#J#K#L#M#N#O#P#Q#",
"R#S#T#U#V#W#X#Y#Y.Z#`# $.$+$@$#$$$%$&$*$=$Y.Y.-$;$>$,$'$)$!$~${$",
"]$^$/$($_$:$<$[$Y.}$|$1$2$3$4$5$6$7$8$9$0$Y.Y.a$b$c$d$e$f$g$h$i$",
"j$k$l$m$n$o$p$q$Y.r$s$t$u$v$w$x$y$z$A$B$C$Y.Y.D$E$F$G$H$I$J$K$L$",
"M$N$O$P$Q$R$S$T$U$Y.V$W$X$Y$Z$`$ %.%+%@%#%Y.Y.$%%%&%*%=%-%K$K$;%",
". >%,%'%)%!%~%{%]%Y.Y.^%/%(%_%:%<%[%}%|%1%Y.Y.2%3%G$4%5%J$J$6%. ",
"` 7%8%9%0%a%b%c%d%e%Y.Y.f%g%h%i%j%k%l%m%n%Y.Y.o%p%q%r%-%J$K$s%t%",
". . u%v%w%x%y%z%A%B%C%D%Y.Y.Y.Y.Y.Y.Y.Y.Y.E%F%G%H%=%I%K$K$J%. . ",
". ` K%L%M%N%O%P%Q%R%S%T%U%V%W%X%Y%Z%`% &.&+&@&q%#&$&J$K$%&&&t%. ",
". . . *&=&-&;&>&,&'&)&!&~&{&]&^&/&(&_&:&<&[&4%r%I%J$K$}&|&) . . ",
". . . . 1&2&3&4&5&6&7&8&9&0&a&b&c&d&e&f&g&h&5%-%K$K$}&i&. . . . ",
". . . ` . j&k&l&m&n&o&p&q&r&s&t&u&v&w&x&y&z&J$J$K$%&A&. t%. . . ",
". . . . . . B&C&D&E&F&G&H&I&J&K&L&M&N&O&P&Q&R&K$S&&&) . . . . . ",
". . . . . . ` . T&U&V&W&X&Y&Z&`& *.*+*@*#*$*%*&*. t%. . . . . . ",
". . . . . . . . ` . **=*-*;*>*`&,*'*)*!*~*{*. t%. . . . . . . . "};
