/* XPM */
static char * info_xpm[] = {
"24 24 4 1",
" 	c None",
".	c #FFFFFF",
"+	c #0018FF",
"@	c #606EFF",
"........................",
"........................",
"........................",
"........+++.............",
"........+++.............",
"........+++.............",
"........................",
"........................",
"....@++++++.............",
"....+++++++.............",
"....@++++++.............",
"........+++.............",
"........+++.............",
"........+++.............",
"........+++.............",
"........+++.............",
"........+++.............",
"........+++.............",
"...@+++++++++++@........",
"...+++++++++++++........",
"...@+++++++++++@........",
"........................",
"........................",
"........................"};
