/* XPM */
static char * load_dictionary_xpm[] = {
"32 32 41 1",
" 	c None",
".	c #FFFFFF",
"+	c #0C00FF",
"@	c #000000",
"#	c #060606",
"$	c #1B1B1B",
"%	c #474747",
"&	c #919191",
"*	c #F2F2F2",
"=	c #191919",
"-	c #CBCBCB",
";	c #F8F8F8",
">	c #DFDFDF",
",	c #A0A0A0",
"'	c #282828",
")	c #161616",
"!	c #ECECEC",
"~	c #F4F4F4",
"{	c #2E2E2E",
"]	c #808080",
"^	c #ADADAD",
"/	c #373737",
"(	c #EAEAEA",
"_	c #111111",
":	c #FBFBFB",
"<	c #040404",
"[	c #E9E9E9",
"}	c #121212",
"|	c #ACACAC",
"1	c #383838",
"2	c #2D2D2D",
"3	c #818181",
"4	c #F9F9F9",
"5	c #E0E0E0",
"6	c #A1A1A1",
"7	c #1E1E1E",
"8	c #090909",
"9	c #1C1C1C",
"0	c #4A4A4A",
"a	c #969696",
"b	c #F3F3F3",
"................................",
"................................",
"...............++...............",
"...............++...............",
"...............++...............",
"...............++...............",
"...........++++++++++...........",
"...........++++++++++...........",
"...............++...............",
"...............++...............",
"...............++...............",
"...............++...............",
"................................",
".............@@.................",
"..@@@@@@@@...@@....@@@@#$%&*....",
"..@@@@@@@@...@@....@@@@@@@@=-...",
"..@@.........@@....@@..;>,'@)!..",
"..@@.........@@....@@.....~{@]..",
"..@@.........@@....@@......^@/..",
"..@@@@@@@@...@@....@@......(@_..",
"..@@@@@@@@...@@....@@......:@<..",
"..@@.........@@....@@......[@}..",
"..@@.........@@....@@......|@1..",
"..@@.........@@....@@.....~2@3..",
"..@@.........@@....@@..456'@)!..",
"..@@@@@@@@...@@....@@@@@@@@7-...",
"..@@@@@@@@...@@....@@@@890ab....",
".............@@.................",
".............@@.................",
".............@@.................",
".............@@.................",
"................................"};
