/* XPM */
static char * log_entries_xpm[] = {
"28 28 79 1",
" 	c None",
".	c #FFFFFF",
"+	c #000000",
"@	c #4B4B4B",
"#	c #EFEFEF",
"$	c #6F6F6F",
"%	c #1D1D1D",
"&	c #050505",
"*	c #1E1E1E",
"=	c #707070",
"-	c #F0F0F0",
";	c #F5F5F5",
">	c #7D7D7D",
",	c #202020",
"'	c #040404",
")	c #161616",
"!	c #535353",
"~	c #060606",
"{	c #F4F4F4",
"]	c #2C2C2C",
"^	c #686868",
"/	c #919191",
"(	c #2F2F2F",
"_	c #FAFAFA",
":	c #3D3D3D",
"<	c #020202",
"[	c #5B5B5B",
"}	c #7F7F7F",
"|	c #373737",
"1	c #ABABAB",
"2	c #818181",
"3	c #8D8D8D",
"4	c #959595",
"5	c #2B2B2B",
"6	c #313131",
"7	c #FCFCFC",
"8	c #080808",
"9	c #454545",
"0	c #444444",
"a	c #090909",
"b	c #0A0A0A",
"c	c #424242",
"d	c #474747",
"e	c #1C1C1C",
"f	c #FEFEFE",
"g	c #1B1B1B",
"h	c #1F1F1F",
"i	c #282828",
"j	c #A8A8A8",
"k	c #A5A5A5",
"l	c #616161",
"m	c #CDCDCD",
"n	c #D5D5D5",
"o	c #F2F2F2",
"p	c #2A2A2A",
"q	c #929292",
"r	c #676767",
"s	c #DADADA",
"t	c #0C0C0C",
"u	c #7E7E7E",
"v	c #8F8F8F",
"w	c #555555",
"x	c #4C4C4C",
"y	c #EDEDED",
"z	c #6D6D6D",
"A	c #6E6E6E",
"B	c #CBCBCB",
"C	c #3E3E3E",
"D	c #C3C3C3",
"E	c #545454",
"F	c #979797",
"G	c #B4B4B4",
"H	c #191919",
"I	c #8A8A8A",
"J	c #FDFDFD",
"K	c #4F4F4F",
"L	c #1A1A1A",
"M	c #070707",
"N	c #F6F6F6",
"............................",
"............................",
"............................",
"............................",
"............................",
"............................",
"..+@........................",
"..+@........................",
"..+@........................",
"..+@........................",
"..+@...#$%&*=-....;>,')!~@..",
"..+@..{]~^/^~(;.._:<[/}|+@..",
"..+@..}+1...1+2..3+4....+@..",
"..+@..5*.....%]..6)7....+@..",
"..+@..89.....0a..bc.....+@..",
"..+@..80.....0a..&d.....+@..",
"..+@..5e....fg]..hi.....+@..",
"..+@..>+j...k+}..l+m...n+@..",
"..+@..op~^qr&]{..st)uvw~+x..",
"..+@...yze'eA#....BC8t9D+E..",
".......................#+=..",
".................._....F+G..",
"..................H[I/l'cJ..",
"..................KL'Mi>N...",
"............................",
"............................",
"............................",
"............................"};
