/* XPM */
static char * re_initialize_grammar_xpm[] = {
"24 24 61 1",
" 	c None",
".	c #FFFFFF",
"+	c #000000",
"@	c #A7A7A7",
"#	c #222222",
"$	c #050505",
"%	c #FDFDFD",
"&	c #7D7D7D",
"*	c #181818",
"=	c #080808",
"-	c #4E4E4E",
";	c #EDEDED",
">	c #7A7A7A",
",	c #858585",
"'	c #777777",
")	c #F4F4F4",
"!	c #6C6C6C",
"~	c #5F5F5F",
"{	c #202020",
"]	c #EFEFEF",
"^	c #ECECEC",
"/	c #131313",
"(	c #040404",
"_	c #1C1C1C",
":	c #EBEBEB",
"<	c #7F7F7F",
"[	c #8A8A8A",
"}	c #E8E8E8",
"|	c #FAFAFA",
"1	c #CECECE",
"2	c #515151",
"3	c #FCFCFC",
"4	c #868686",
"5	c #1F1F1F",
"6	c #060606",
"7	c #434343",
"8	c #D1D1D1",
"9	c #4C4C4C",
"0	c #0F0F0F",
"a	c #0B0B0B",
"b	c #545454",
"c	c #999999",
"d	c #D6D6D6",
"e	c #161616",
"f	c #A0A0A0",
"g	c #BCBCBC",
"h	c #424242",
"i	c #575757",
"j	c #8F8F8F",
"k	c #E6E6E6",
"l	c #E3E3E3",
"m	c #555555",
"n	c #8B8B8B",
"o	c #D3D3D3",
"p	c #121212",
"q	c #989898",
"r	c #F0F0F0",
"s	c #CDCDCD",
"t	c #494949",
"u	c #0D0D0D",
"v	c #2A2A2A",
"........................",
"........................",
"........................",
"...+@#$.%&*=-;..........",
"...+>;..,';)!~..........",
"...+....{]..^/..........",
"...+....(+++++..........",
"...+...._:..............",
"...+....<[}|12..........",
"...+....34567@..........",
"........................",
"........................",
".....890abc.............",
"....def))gh.............",
"....ij..................",
"....ek..................",
"....(3..................",
"....el..+++.............",
"....mn....+.............",
"....opqr|o+.............",
".....stu6v'.............",
"........................",
"........................",
"........................"};
