/* XPM */
static char * remove_transformation_rules24x24_xpm[] = {
"24 24 95 2",
"  	c None",
". 	c #FFFFFF",
"+ 	c #FFFEFE",
"@ 	c #FFE4E4",
"# 	c #FF1010",
"$ 	c #FF1E1E",
"% 	c #FF3939",
"& 	c #FEFEFE",
"* 	c #FDFDFD",
"= 	c #EFEFEF",
"- 	c #565656",
"; 	c #BEBEBE",
"> 	c #636363",
", 	c #1D1D1D",
"' 	c #F1F1F1",
") 	c #EBEBEB",
"! 	c #2E2E2E",
"~ 	c #000000",
"{ 	c #0B0B0B",
"] 	c #6B6B6B",
"^ 	c #090909",
"/ 	c #878787",
"( 	c #121212",
"_ 	c #3C3C3C",
": 	c #0F0F0F",
"< 	c #3E3E3E",
"[ 	c #9F9F9F",
"} 	c #0C0C0C",
"| 	c #101010",
"1 	c #080808",
"2 	c #C8C8C8",
"3 	c #0A0A0A",
"4 	c #979797",
"5 	c #777777",
"6 	c #7E7E7E",
"7 	c #7F7F7F",
"8 	c #666666",
"9 	c #646464",
"0 	c #7A7A7A",
"a 	c #787878",
"b 	c #C0C0C0",
"c 	c #DEDEDE",
"d 	c #020202",
"e 	c #8F8F8F",
"f 	c #E0E0E0",
"g 	c #030303",
"h 	c #EAEAEA",
"i 	c #DDDDDD",
"j 	c #E4E4E4",
"k 	c #00000D",
"l 	c #676586",
"m 	c #CFCFCF",
"n 	c #F2F2F2",
"o 	c #FEFEFF",
"p 	c #8F8EA5",
"q 	c #DEDDF8",
"r 	c #FFFFFE",
"s 	c #EDEDED",
"t 	c #0000FF",
"u 	c #6E66FE",
"v 	c #D2D2D2",
"w 	c #F7F6FE",
"x 	c #0E01FF",
"y 	c #0A00FF",
"z 	c #9A95FF",
"A 	c #453CFF",
"B 	c #190EFF",
"C 	c #7D76FF",
"D 	c #E2E2E2",
"E 	c #1409FF",
"F 	c #7A74FF",
"G 	c #1A0FFF",
"H 	c #291EFF",
"I 	c #1308FF",
"J 	c #1C11FF",
"K 	c #F2F1FF",
"L 	c #1C10FF",
"M 	c #7F79FF",
"N 	c #F0EFFF",
"O 	c #1F14FF",
"P 	c #6A63FF",
"Q 	c #9C97FF",
"R 	c #0900FF",
"S 	c #E2E1FF",
"T 	c #C3C0FF",
"U 	c #9C98FF",
"V 	c #6C65FF",
"W 	c #281DFF",
"X 	c #EFEFFF",
"Y 	c #FBFAFF",
"Z 	c #DCDAFF",
"` 	c #E0DFFF",
" .	c #F6F6FF",
"..	c #EEEDFF",
"+.	c #DFDDFF",
". . . . . . . . . . . . . . . . . . . . . . . . ",
". . . . . . . . . . . . . . . . . . . . . . . . ",
". . . . . . . . . . . . . . . . . . . . . . . . ",
". . . . . . . . . . . . . . . . . . . . . . . . ",
". . . . . . . + . . . . . . . . . . . . . . . . ",
"@ # $ $ $ $ % . . . . . . . . . . . . . . . . . ",
"@ # $ $ $ $ % . . . . . . . . . . . . . . . . . ",
". . . . . . . + . & . . . . . . . . . . . . . . ",
". . . . . . . . & . & & . . . . . . . . . . . . ",
". . . . . . . . . * . . . . . . . . . . . . . . ",
". . . . . . . . . & . . . . . . . . . . . . . . ",
". . . . . . . . & . & . . . . . . . & . . . . . ",
". . & * = . . . . . . . . . . . . . & - ; . . . ",
". . . > , ' . . . . . & . & . . . & ) ! ~ . & . ",
". & . { ] ) & . . . . . ! . & . . . ^ / ( _ . . ",
"& . : < [ ~ . & . . . . } > . & . ' | . . 1 * . ",
". 2 ~ . . 3 4 . . = 5 6 7 ~ 8 . . 3 4 . . 9 0 . ",
". a b . . ' | . & c ~ ~ ~ d ~ . e ~ . & & f g h ",
"i ~ j . . . k l . . . . m ~ n o p q r o . . . . ",
"s b . . o r t t u . . . ~ v . w x y z . . . . . ",
". . & . . A B C t . o . D . r E F G H . o . . . ",
". . . . . I . . H J . o o . K L . . t M . . . . ",
". . . N O P . . Q R S . . T t U . . V W X . . . ",
". . . Y Z o o o . `  .. . ..+.. o o o Z Y . . . "};
