/* XPM */
static char * remove_translation_rules24x24_xpm[] = {
"24 24 36 1",
" 	c None",
".	c #FFFFFF",
"+	c #DEDEDE",
"@	c #EFEFEF",
"#	c #000000",
"$	c #777777",
"%	c #FEFEFE",
"&	c #868686",
"*	c #0E0E0E",
"=	c #010101",
"-	c #0F0F0F",
";	c #CACACA",
">	c #3D3D3D",
",	c #969696",
"'	c #3F3F3F",
")	c #808080",
"!	c #8E8E8E",
"~	c #E0E0E0",
"{	c #1B1B1B",
"]	c #5B5B5B",
"^	c #FFE4E4",
"/	c #FF1010",
"(	c #FF1E1E",
"_	c #FF3939",
":	c #FEFFFF",
"<	c #878787",
"[	c #7F7F7F",
"}	c #DBDBDB",
"|	c #FFFEFE",
"1	c #818181",
"2	c #636363",
"3	c #545454",
"4	c #DFDFDF",
"5	c #F2F2F2",
"6	c #979797",
"7	c #6F6F6F",
"........................",
"........................",
"........................",
"........................",
"........................",
"........................",
"........................",
"........................",
"........................",
".........+@.............",
".........#$.............",
".......%.#&..%..........",
"........*=##-.%...+#;>#+",
"........,#')!.%...~#{]$@",
"^/((((_:.#)..%.%..~#<...",
"^/((((_..#[.......~#}...",
".......|.#1.%.....~#~%..",
".........#2..%....~#~...",
".........3##-.....4#4...",
".........56)!.....@7@...",
"........%....%..........",
"........................",
"........................",
"........................"};
