/* XPM */
static char * remove_vocable_attribute_definitions24x24_xpm[] = {
"24 24 124 2",
"  	c None",
". 	c #FFFFFF",
"+ 	c #EEEEEE",
"@ 	c #FEFEFE",
"# 	c #3A3A3A",
"$ 	c #454545",
"% 	c #FAFAFA",
"& 	c #999999",
"* 	c #323232",
"= 	c #2A2A2A",
"- 	c #909090",
"; 	c #FDFDFD",
"> 	c #808080",
", 	c #070707",
"' 	c #C6C6C6",
") 	c #CECECE",
"! 	c #060606",
"~ 	c #9B9B9B",
"{ 	c #DFDFDF",
"] 	c #000000",
"^ 	c #1C1C1C",
"/ 	c #171717",
"( 	c #A4A4A4",
"_ 	c #F4F4F4",
": 	c #818181",
"< 	c #7E7E7E",
"[ 	c #F5F5F5",
"} 	c #D4D4D4",
"| 	c #535353",
"1 	c #2C2C2C",
"2 	c #606060",
"3 	c #363636",
"4 	c #F2F2F2",
"5 	c #F0F0F0",
"6 	c #292929",
"7 	c #727272",
"8 	c #F9F9F9",
"9 	c #737373",
"0 	c #1E1E1E",
"a 	c #0E0E0E",
"b 	c #D5D5D5",
"c 	c #DDDDDD",
"d 	c #CBCBCB",
"e 	c #474747",
"f 	c #1B1B1B",
"g 	c #1F1F1F",
"h 	c #0F0F0F",
"i 	c #F3F3F3",
"j 	c #313131",
"k 	c #868686",
"l 	c #4F4F4F",
"m 	c #3C3C3C",
"n 	c #5B5B5B",
"o 	c #545454",
"p 	c #888888",
"q 	c #111111",
"r 	c #040404",
"s 	c #8C8C8C",
"t 	c #2B2B2B",
"u 	c #030303",
"v 	c #1A1A1A",
"w 	c #232323",
"x 	c #D6D6D6",
"y 	c #E5E5E5",
"z 	c #404040",
"A 	c #272727",
"B 	c #8F8F8F",
"C 	c #959595",
"D 	c #FEFDFD",
"E 	c #FF1E1E",
"F 	c #FF1111",
"G 	c #FFFEFE",
"H 	c #8E8E8E",
"I 	c #B8B8B8",
"J 	c #7F7F7F",
"K 	c #2E2E2E",
"L 	c #161616",
"M 	c #898989",
"N 	c #202020",
"O 	c #BDBDBD",
"P 	c #8A8A8A",
"Q 	c #848484",
"R 	c #A7A7A7",
"S 	c #FCFCFC",
"T 	c #121212",
"U 	c #383838",
"V 	c #0D0D0D",
"W 	c #5F5F5F",
"X 	c #333333",
"Y 	c #E4E4E4",
"Z 	c #505050",
"` 	c #090909",
" .	c #C5C5C5",
"..	c #A0A0A0",
"+.	c #9D9D9D",
"@.	c #6D6D6D",
"#.	c #373737",
"$.	c #0B0B0B",
"%.	c #878787",
"&.	c #2D2D2D",
"*.	c #7C7C7C",
"=.	c #1D1D1D",
"-.	c #242424",
";.	c #494949",
">.	c #F1F1F1",
",.	c #D7D7D7",
"'.	c #5C5C5C",
").	c #F6F6F6",
"!.	c #9A9A9A",
"~.	c #797979",
"{.	c #3F3F3F",
"].	c #E3E3E3",
"^.	c #181818",
"/.	c #686868",
"(.	c #7D7D7D",
"_.	c #484848",
":.	c #F8F8F8",
"<.	c #858585",
"[.	c #0C0C0C",
"}.	c #141414",
"|.	c #ACACAC",
"1.	c #757575",
"2.	c #101010",
"3.	c #BEBEBE",
". . + . . . . . . . . . . . . . . . . . . . . . ",
". @ . @ @ . . @ @ @ @ . . @ @ . . . . . . . . . ",
". . . . . # # . . . . $ $ . . . . . % & * = - ; ",
". . . . . > , ' . . ) ! ~ . @ . . . { ] ^ / ] ( ",
". . . . . _ ] : . . < , . . . . . @ [ } . . | 1 ",
". . . . @ . 2 3 4 5 6 7 . @ . . . @ 8 9 1 0 a , ",
". . . . . . b ] c d ] c . . . . . . e ] f g h ] ",
". . . . . @ i j k l m _ @ . . . . . ] n . . o ] ",
". . . . . . . p q r s . . . . . . . t u ^ v w ] ",
". . . . . . . b 1 1 x . . . . . . . y z A B C ^ ",
". . . . . . D . . . . @ . . . . . @ . . . . . . ",
"E E E E E F . . . . . . . . . . . . . . . . . . ",
"E E E E E F . @ . . @ . . . . . . . . @ @ . . . ",
". . . . . . G . H H . . . . . . . . . @ . I k J ",
". . . . . . . . ^ ^ . . . . . . . . . . & u ] ] ",
". . . . . . . . 0 0 . . . . . . . . . . K L [ . ",
". . @ . b M s 5 N 0 . @ . O P Q R S 5 J a h P J ",
". . . c T ] ] U V 0 . . W ] ] ] ] X Y ] ] ] ] ] ",
". . . Z `  .. Q u 0 . ..] > S . +.] > . N N . . ",
". . . ] @.. . . v 0 . #.$.: : > %.V &.. 0 0 . . ",
". . . ] *.. . . =.0 . -.] ] ] ] ] ] q . 0 0 . . ",
". . . 0 ;.>.. ,.T 0 . '.T i . . . . ).. 0 0 . . ",
". . . !.] | ~.{.u 0 . ].^ ^./.(.9 _.0 . 0 0 . . ",
". . . :.<.[.}.|.^ 0 . . y 1.f ] 2.Z 3.. 0 0 . . "};
