/* XPM */
static char * remove_grammar_rules24x24_xpm[] = {
"24 24 60 1",
" 	c None",
".	c #FFFFFF",
"+	c #FEFEFE",
"@	c #AFAFAF",
"#	c #101010",
"$	c #000000",
"%	c #636363",
"&	c #707070",
"*	c #DEDEDE",
"=	c #CACACA",
"-	c #3D3D3D",
";	c #C6C6C6",
">	c #303030",
",	c #7A7A7A",
"'	c #525252",
")	c #0E0E0E",
"!	c #E0E0E0",
"~	c #1B1B1B",
"{	c #5B5B5B",
"]	c #777777",
"^	c #EFEFEF",
"/	c #FFE4E4",
"(	c #FF1010",
"_	c #FF1E1E",
":	c #FF3939",
"<	c #4C4C4C",
"[	c #0F0F0F",
"}	c #D9D9D9",
"|	c #F1F1F1",
"1	c #878787",
"2	c #232323",
"3	c #1D1D1D",
"4	c #7C7C7C",
"5	c #DBDBDB",
"6	c #2F2F2F",
"7	c #191919",
"8	c #6E6E6E",
"9	c #7B7B7B",
"0	c #8B8B8B",
"a	c #0B0B0B",
"b	c #363636",
"c	c #DFDFDF",
"d	c #EDEDED",
"e	c #949494",
"f	c #848484",
"g	c #C3C3C3",
"h	c #666666",
"i	c #121212",
"j	c #6F6F6F",
"k	c #6D6D6D",
"l	c #F9F9F9",
"m	c #A4A4A4",
"n	c #6B6B6B",
"o	c #222222",
"p	c #EAEAEA",
"q	c #DCDCDC",
"r	c #939393",
"s	c #828282",
"t	c #989898",
"u	c #E5E5E5",
"........................",
"........................",
"........................",
"........................",
"........................",
"........................",
"........................",
"........................",
"........................",
"........................",
"........................",
"........+......+........",
".........@#$%&$...*$=-$*",
"........;$>,')$...!$~{]^",
"/(____:.<[}.|<$...!$1...",
"/(____:.23...4$...!$5...",
"........67...8$...!$!+..",
"........9$0.;[$...!$!...",
".........3$$ab$...c$c...",
".......+.defghi...^j^...",
".........kl.m$n.........",
".........$$$$op+........",
".........qrstu.+........",
"........+..............."};
