/* XPM */
static char * resolve_superclasses24x24_xpm[] = {
"24 24 118 2",
"  	c None",
". 	c #FFFFFF",
"+ 	c #FEFEFE",
"@ 	c #E3E3E3",
"# 	c #8C8C8C",
"$ 	c #5A5A5A",
"% 	c #7A7A7A",
"& 	c #B2B2B2",
"* 	c #FCFCFC",
"= 	c #DCDCDC",
"- 	c #121212",
"; 	c #000000",
"> 	c #060606",
", 	c #101010",
"' 	c #DEDEDE",
") 	c #6C6C6C",
"! 	c #4C4C4C",
"~ 	c #E1E1E1",
"{ 	c #E9E9E9",
"] 	c #E2E2E2",
"^ 	c #909090",
"/ 	c #E7E7E7",
"( 	c #5C5C5C",
"_ 	c #424242",
": 	c #EEEEEE",
"< 	c #F9F9F9",
"[ 	c #C1C1C1",
"} 	c #020202",
"| 	c #2B2B2B",
"1 	c #575757",
"2 	c #A5A5A5",
"3 	c #CCCCCC",
"4 	c #4B4B4B",
"5 	c #010101",
"6 	c #8E8E8E",
"7 	c #C3C3C3",
"8 	c #292929",
"9 	c #A3A3A3",
"0 	c #A1A1A1",
"a 	c #F7F7F7",
"b 	c #555555",
"c 	c #2F2F2F",
"d 	c #666666",
"e 	c #141414",
"f 	c #1B1B1B",
"g 	c #181818",
"h 	c #040404",
"i 	c #A0A0A0",
"j 	c #CECECE",
"k 	c #565656",
"l 	c #202020",
"m 	c #242424",
"n 	c #9B9B9B",
"o 	c #B6B6B6",
"p 	c #707070",
"q 	c #8B8B8B",
"r 	c #BFBFBF",
"s 	c #C7C7C7",
"t 	c #DFDFDF",
"u 	c #FAFAFA",
"v 	c #CBCBCB",
"w 	c #D9D9D9",
"x 	c #EDEDED",
"y 	c #171717",
"z 	c #444444",
"A 	c #F0F0F0",
"B 	c #EBEBEB",
"C 	c #0F0F0F",
"D 	c #3D3D3D",
"E 	c #0C0C0C",
"F 	c #595959",
"G 	c #0B0B0B",
"H 	c #C4C4C4",
"I 	c #E4E4E4",
"J 	c #DDDDDD",
"K 	c #DBDBDB",
"L 	c #737373",
"M 	c #F2F2F2",
"N 	c #414141",
"O 	c #BBBBBB",
"P 	c #111111",
"Q 	c #818181",
"R 	c #676767",
"S 	c #848484",
"T 	c #6D6D6D",
"U 	c #FBFBFB",
"V 	c #C9C9C9",
"W 	c #090909",
"X 	c #D3D3D3",
"Y 	c #858585",
"Z 	c #828282",
"` 	c #080808",
" .	c #0D0D0D",
"..	c #878787",
"+.	c #C0C0C0",
"@.	c #646464",
"#.	c #222222",
"$.	c #FDFDFD",
"%.	c #656565",
"&.	c #2E2E2E",
"*.	c #ECECEC",
"=.	c #191919",
"-.	c #838383",
";.	c #282828",
">.	c #BDBDBD",
",.	c #232323",
"'.	c #949494",
").	c #DADADA",
"!.	c #050505",
"~.	c #A7A7A7",
"{.	c #F8F8F8",
"].	c #F4F4F4",
"^.	c #9A9A9A",
"/.	c #434343",
"(.	c #EAEAEA",
"_.	c #F6F6F6",
":.	c #6B6B6B",
"<.	c #6F6F6F",
". . . . . . . + . @ # $ $ % & * . . . . . . . . ",
". . . . . . . . = - ; > , ; ; ' . . . . . . . . ",
". . . . . . . . ) ; ! ~ { ] ^ / . . . . . . . . ",
". . . . . . . . ( ; _ = : < . . + . . . . . . . ",
". . . . . . . . [ ; ; } | 1 2 . + . . . . . . . ",
". . . . . . . . . 3 4 ; ; ; 5 6 . . . . . . . . ",
". . . . . . . . * . . . 7 8 ; 8 . . . . . . . . ",
". . . . . . . . 9 0 ] . a b ; c . . . . . . . . ",
". . . . . . . . d ; e f g h ; i . . . . . . . . ",
". . . . . . + . j k l g g m n . + . . + . . . . ",
". . . . . . . o p q r s [ t . + . . . . u v j w ",
". . . . . . . x a ; ( m y z A . . . . . B C - D ",
". . . . . . + . E f F G H . I t J K . + . . q c ",
". . . . . . . r L M N E O . P ; Q R . . . . S c ",
". . . . . . ~ T . U V W O . P X Y . + . . . S c ",
". . . . + . [ Z . . K ` O .  .A T . + . . . S c ",
". . . + . Z Z . + . K ` O . ... +.@.. + . . S c ",
". . . . Z [ . + . . K ` O . . + . x #.. + . S c ",
". . + . T ~ . . . . K ` O . . . . + x d $.. S c ",
". + . @.+.. . . . . K ` O . . . . . . %./ . S c ",
". . &.*.. + . . . . K ` O . . . . . . * =.. -.c ",
". U ;.. . . . . . . K ` >.. . . . . . + . ,.'.c ",
"x ( * + . . . . . . ).!.d ~.{.. . . . . ].^./.8 ",
"u x . . . . . . . . (.% p # _.. . . . . M :.<.q "};
