/* XPM */
static char * resolve_1parse_level_xpm[] = {
"32 32 63 1",
" 	c None",
".	c #FFFFFF",
"+	c #D8D8D8",
"@	c #8F8F8F",
"#	c #6D6D6D",
"$	c #666666",
"%	c #7F7F7F",
"&	c #B9B9B9",
"*	c #FBFBFB",
"=	c #F5F5F5",
"-	c #5F5F5F",
";	c #010101",
">	c #040404",
",	c #2B2B2B",
"'	c #353535",
")	c #171717",
"!	c #000000",
"~	c #191919",
"{	c #BFBFBF",
"]	c #FDFDFD",
"^	c #474747",
"/	c #797979",
"(	c #F1F1F1",
"_	c #CBCBCB",
":	c #4F4F4F",
"<	c #8B8B8B",
"[	c #A5A5A5",
"}	c #757575",
"|	c #EAEAEA",
"1	c #444444",
"2	c #030303",
"3	c #ECECEC",
"4	c #0E0E0E",
"5	c #2C2C2C",
"6	c #F9F9F9",
"7	c #424242",
"8	c #B4B4B4",
"9	c #878787",
"0	c #A2A2A2",
"a	c #020202",
"b	c #3D3D3D",
"c	c #6E6E6E",
"d	c #373737",
"e	c #1F1F1F",
"f	c #1A1A1A",
"g	c #626262",
"h	c #D3D3D3",
"i	c #F4F4F4",
"j	c #989898",
"k	c #262626",
"l	c #979797",
"m	c #CCCCCC",
"n	c #C4C4C4",
"o	c #828282",
"p	c #080808",
"q	c #BDBDBD",
"r	c #3C3C3C",
"s	c #737373",
"t	c #EBEBEB",
"u	c #EFEFEF",
"v	c #CFCFCF",
"w	c #CACACA",
"x	c #E1E1E1",
"................................",
"................................",
"................................",
"................................",
"................................",
"................................",
"................................",
".....................+@#$%&*....",
"...................=-;>,')!~{...",
"...!............!.]^;/(..._:<...",
"..!!!...........!.[!}.......|...",
".!.!.!..........!.123...........",
"...!............!.45............",
"...!............!6!7....89990...",
".!.!.!..........!]ab....c))ad...",
"..!!!...........!.ef.......ed...",
"...!............!.g!_......ed...",
".........!!!!!!!!.h>di.....ed...",
".........!.........jaklm+nopb...",
".........!..........qra!!!)st...",
".........!............uvwx......",
".........!......................",
".........!......................",
".........!......................",
"...!!!!!!!......................",
"...!............................",
"...!............................",
"...!............................",
"...!............................",
"...!............................",
"...!............................",
"................................"};
