/* XPM */
static char * show_translation_rules24x24_xpm[] = {
"24 24 31 1",
" 	c None",
".	c #FFFFFF",
"+	c #000000",
"@	c #0018FF",
"#	c #DEDEDE",
"$	c #EFEFEF",
"%	c #777777",
"&	c #FEFEFE",
"*	c #868686",
"=	c #0E0E0E",
"-	c #010101",
";	c #0F0F0F",
">	c #CACACA",
",	c #3D3D3D",
"'	c #969696",
")	c #3F3F3F",
"!	c #808080",
"~	c #8E8E8E",
"{	c #E0E0E0",
"]	c #1B1B1B",
"^	c #5B5B5B",
"/	c #878787",
"(	c #7F7F7F",
"_	c #DBDBDB",
":	c #818181",
"<	c #636363",
"[	c #545454",
"}	c #DFDFDF",
"|	c #F2F2F2",
"1	c #979797",
"2	c #6F6F6F",
"........................",
".....+++++..............",
"....+@@@@.+.............",
"..++@@++@@.+............",
".++.@@++@@.++...........",
"..+++@@@@.++............",
"....+++++++.............",
"........................",
"........................",
".........#$.............",
".........+%.............",
"..&..&.&.+*..&..........",
"........=-++;.&...#+>,+#",
"........'+)!~.&...{+]^%$",
".........+!..&.&..{+/...",
".........+(.......{+_...",
".......&.+:.&.....{+{&..",
".........+<..&....{+{...",
"..&..&...[++;.....}+}...",
".........|1!~.....$2$...",
"........&....&..........",
"........................",
"........................",
"........................"};
