/* XPM */
static char * VT_icon_xpm[] = {
"32 32 48 1",
" 	c None",
".	c #FFFFFF",
"+	c #313131",
"@	c #000000",
"#	c #AAAAAA",
"$	c #323232",
"%	c #FF0000",
"&	c #969696",
"*	c #484848",
"=	c #474747",
"-	c #979797",
";	c #F0F0F0",
">	c #0A0A0A",
",	c #020202",
"'	c #E3E3E3",
")	c #E2E2E2",
"!	c #F1F1F1",
"~	c #606060",
"{	c #838383",
"]	c #828282",
"^	c #C5C5C5",
"/	c #232323",
"(	c #FEFEFE",
"_	c #222222",
":	c #2A2A2A",
"<	c #BFBFBF",
"[	c #BEBEBE",
"}	c #8F8F8F",
"|	c #5C5C5C",
"1	c #5B5B5B",
"2	c #8E8E8E",
"3	c #ECECEC",
"4	c #070707",
"5	c #090909",
"6	c #060606",
"7	c #595959",
"8	c #989898",
"9	c #575757",
"0	c #353535",
"a	c #343434",
"b	c #BCBCBC",
"c	c #242424",
"d	c #888888",
"e	c #858585",
"f	c #E8E8E8",
"g	c #050505",
"h	c #030303",
"i	c #E5E5E5",
"................................",
"................................",
"................................",
"................................",
"................................",
"................................",
"................................",
"................................",
"................................",
"................................",
".....+@#......#@$%%%%%%%%%%%%...",
".....&@*......=@-%%%%%%%%%%%%...",
".....;>,'....),>!.....%%........",
"......~@{....]@~......%%........",
"......^@/(..(_@^......%%........",
".......:@<..[@:.......%%........",
".......}@|..1@2.......%%........",
".......345!;563.......%%........",
"........7@8-@9........%%........",
"........[@0a@b........%%........",
"........(c@@_(........%%........",
".........d@@e.........%%........",
".........fghi.........%%........",
"................................",
"................................",
"................................",
"................................",
"................................",
"................................",
"................................",
"................................",
"................................"};
