/* XPM */
static char * VT_icon_xpm[] = {
"32 32 347 2",
"  	c None",
". 	c #B73D3D",
"+ 	c #B33B3B",
"@ 	c #B33E3E",
"# 	c #B44141",
"$ 	c #B34444",
"% 	c #B34646",
"& 	c #B34949",
"* 	c #B34B4B",
"= 	c #B34D4D",
"- 	c #B34F4F",
"; 	c #B35050",
"> 	c #B45151",
", 	c #B35252",
"' 	c #B45252",
") 	c #B34848",
"! 	c #B34040",
"~ 	c #B33D3D",
"{ 	c #B33A3A",
"] 	c #B63C3C",
"^ 	c #EDC3C3",
"/ 	c #E7B7B7",
"( 	c #E9BBBB",
"_ 	c #E8BBBB",
": 	c #E9BDBD",
"< 	c #E9BEBE",
"[ 	c #E8BFBF",
"} 	c #E9C0C0",
"| 	c #E8C1C1",
"1 	c #E9C2C2",
"2 	c #E8C2C2",
"3 	c #E8C3C3",
"4 	c #E9C3C3",
"5 	c #E9C4C4",
"6 	c #E8C0C0",
"7 	c #E9BABA",
"8 	c #E7B6B6",
"9 	c #EDC2C2",
"0 	c #FFFFFF",
"a 	c #FFD9D9",
"b 	c #FCA6A6",
"c 	c #FDA3A3",
"d 	c #FDA6A6",
"e 	c #FFACAC",
"f 	c #FFF9F9",
"g 	c #FFF0F0",
"h 	c #FFB4B4",
"i 	c #FEB5B5",
"j 	c #FDB3B3",
"k 	c #FDBCBC",
"l 	c #FFEDED",
"m 	c #FFCACA",
"n 	c #884F4F",
"o 	c #433C3C",
"p 	c #464343",
"q 	c #7C4D4D",
"r 	c #FFC7C7",
"s 	c #FFB5B5",
"t 	c #796363",
"u 	c #646363",
"v 	c #6A5C5C",
"w 	c #BE8282",
"x 	c #FFE9E9",
"y 	c #FFF7F7",
"z 	c #BF6565",
"A 	c #483939",
"B 	c #414242",
"C 	c #504848",
"D 	c #F28989",
"E 	c #E17E7E",
"F 	c #616464",
"G 	c #606161",
"H 	c #785B5B",
"I 	c #E39F9F",
"J 	c #F99494",
"K 	c #593F3F",
"L 	c #404040",
"M 	c #494646",
"N 	c #B66262",
"O 	c #FFF4F4",
"P 	c #FFE3E3",
"Q 	c #A66767",
"R 	c #616363",
"S 	c #605F5F",
"T 	c #926A6A",
"U 	c #FFC8C8",
"V 	c #FFD3D3",
"W 	c #8C4A4A",
"X 	c #413F3F",
"Y 	c #464545",
"Z 	c #7C5454",
"` 	c #FFC0C0",
" .	c #FDFDFD",
"..	c #FBFFFF",
"+.	c #FBA9A9",
"@.	c #6F6262",
"#.	c #5D6060",
"$.	c #645D5D",
"%.	c #BC7D7D",
"&.	c #FFEEEE",
"*.	c #FAFFFF",
"=.	c #FAFDFD",
"-.	c #FAFCFC",
";.	c #FCFDFD",
">.	c #D36363",
",.	c #433E3E",
"'.	c #434444",
").	c #5B4A4A",
"!.	c #E88D8D",
"~.	c #CAC4C4",
"{.	c #BBAAAA",
"].	c #B76E6E",
"^.	c #765D5D",
"/.	c #745C5C",
"(.	c #7A5A5A",
"_.	c #B27070",
":.	c #C0A9A9",
"<.	c #BDA4A4",
"[.	c #BBA1A1",
"}.	c #B99E9E",
"|.	c #B79C9C",
"1.	c #B59999",
"2.	c #ABA4A4",
"3.	c #FFA1A1",
"4.	c #5C3E3E",
"5.	c #404141",
"6.	c #4D4444",
"7.	c #B16C6C",
"8.	c #FEE4E4",
"9.	c #A58A8A",
"0.	c #BB4848",
"a.	c #D45555",
"b.	c #DA5858",
"c.	c #D95757",
"d.	c #D45252",
"e.	c #D14949",
"f.	c #D04646",
"g.	c #CF4242",
"h.	c #CD3C3C",
"i.	c #CC3737",
"j.	c #C73131",
"k.	c #6E4848",
"l.	c #FEFFFF",
"m.	c #FFE8E8",
"n.	c #9E4040",
"o.	c #3B3E3E",
"p.	c #424242",
"q.	c #7F5353",
"r.	c #F5B5B5",
"s.	c #B29090",
"t.	c #EB4C4C",
"u.	c #FF5353",
"v.	c #FF5252",
"w.	c #FF5151",
"x.	c #FF4D4D",
"y.	c #FF4949",
"z.	c #FF4646",
"A.	c #FF4242",
"B.	c #FF3C3C",
"C.	c #FF3737",
"D.	c #824E4E",
"E.	c #FDFFFF",
"F.	c #FEFEFE",
"G.	c #E76969",
"H.	c #393939",
"I.	c #3D3E3E",
"J.	c #604141",
"K.	c #CF8A8A",
"L.	c #9A8585",
"M.	c #A54747",
"N.	c #BF4E4E",
"O.	c #BE4F4F",
"P.	c #BB4F4F",
"Q.	c #D84D4D",
"R.	c #FF4B4B",
"S.	c #DF4646",
"T.	c #B43B3B",
"U.	c #AF3434",
"V.	c #AD3030",
"W.	c #A82B2B",
"X.	c #634343",
"Y.	c #663333",
"Z.	c #373B3B",
"`.	c #463B3B",
" +	c #AC6E6E",
".+	c #E89696",
"++	c #745454",
"@+	c #4B4747",
"#+	c #4B4949",
"$+	c #854949",
"%+	c #8F4848",
"&+	c #FF4747",
"*+	c #FF4343",
"=+	c #A64040",
"-+	c #AAA4A4",
";+	c #C7C4C4",
">+	c #C5C1C1",
",+	c #C4C0C0",
"'+	c #C8C7C7",
")+	c #FFF6F6",
"!+	c #B13A3A",
"~+	c #2E3636",
"{+	c #353838",
"]+	c #844E4E",
"^+	c #EA6060",
"/+	c #684747",
"(+	c #404343",
"_+	c #D55959",
":+	c #844141",
"<+	c #FF4141",
"[+	c #FF3E3E",
"}+	c #A13B3B",
"|+	c #D4D0D0",
"1+	c #EE7777",
"2+	c #372C2C",
"3+	c #303535",
"4+	c #613737",
"5+	c #963838",
"6+	c #4E3B3B",
"7+	c #3A3D3D",
"8+	c #5B3B3B",
"9+	c #FDA0A0",
"0+	c #7D3737",
"a+	c #FF3838",
"b+	c #9F3535",
"c+	c #D2CECE",
"d+	c #FCC6C6",
"e+	c #742424",
"f+	c #272F2F",
"g+	c #3E3232",
"h+	c #473434",
"i+	c #393636",
"j+	c #2F3737",
"k+	c #A73A3A",
"l+	c #F9E4E4",
"m+	c #7A2D2D",
"n+	c #FF3636",
"o+	c #FF3333",
"p+	c #9D2F2F",
"q+	c #D0CDCD",
"r+	c #FEF5F5",
"s+	c #BC3F3F",
"t+	c #212727",
"u+	c #2B2D2D",
"v+	c #2C2F2F",
"w+	c #2F3131",
"x+	c #312D2D",
"y+	c #E86A6A",
"z+	c #F7FBFB",
"A+	c #762424",
"B+	c #FF2F2F",
"C+	c #FF2D2D",
"D+	c #9A2A2A",
"E+	c #CFCBCB",
"F+	c #FFFCFC",
"G+	c #E68888",
"H+	c #3E1A1A",
"I+	c #242727",
"J+	c #292929",
"K+	c #242A2A",
"L+	c #661F1F",
"M+	c #FCBCBC",
"N+	c #F6F6F6",
"O+	c #721E1E",
"P+	c #FF2A2A",
"Q+	c #FF2828",
"R+	c #972525",
"S+	c #CECACA",
"T+	c #F6CDCD",
"U+	c #7C1A1A",
"V+	c #112121",
"W+	c #1D2323",
"X+	c #122222",
"Y+	c #B23333",
"Z+	c #FEF1F1",
"`+	c #F6F4F4",
" @	c #6E1818",
".@	c #FF2424",
"+@	c #FF2222",
"@@	c #951F1F",
"#@	c #CDC9C9",
"$@	c #FFEBEB",
"%@	c #C84444",
"&@	c #550A0A",
"*@	c #591212",
"=@	c #620909",
"-@	c #E87575",
";@	c #FFFBFB",
">@	c #6B1212",
",@	c #FF1F1F",
"'@	c #FF1C1C",
")@	c #921A1A",
"!@	c #CCC8C8",
"~@	c #FFFDFD",
"{@	c #FEE7E7",
"]@	c #FAD7D7",
"^@	c #FAD9D9",
"/@	c #FEEFEF",
"(@	c #660C0C",
"_@	c #FF1919",
":@	c #FF1717",
"<@	c #901515",
"[@	c #CAC6C6",
"}@	c #F5F3F3",
"|@	c #630606",
"1@	c #FF1515",
"2@	c #FF1212",
"3@	c #8E1010",
"4@	c #C9C5C5",
"5@	c #600202",
"6@	c #FF1010",
"7@	c #FF0E0E",
"8@	c #8B0C0C",
"9@	c #C8C4C4",
"0@	c #FAFAFA",
"a@	c #FCFCFC",
"b@	c #F1EFEF",
"c@	c #5E0000",
"d@	c #FF0B0B",
"e@	c #FF0909",
"f@	c #8B0707",
"g@	c #EEEEEE",
"h@	c #F0F0F0",
"i@	c #E4E3E3",
"j@	c #310000",
"k@	c #AE0000",
"l@	c #AC0000",
"m@	c #530000",
"n@	c #B7B4B4",
"o@	c #F2F3F3",
"p@	c #DEDEDE",
"q@	c #E1E1E1",
"r@	c #E2E2E2",
"s@	c #DCDCDC",
"t@	c #807878",
"u@	c #937E7E",
"v@	c #927D7D",
"w@	c #867C7C",
"x@	c #C9C9C9",
"y@	c #C7C7C7",
"z@	c #C4C4C4",
"A@	c #C3C3C3",
"B@	c #C8C9C9",
"C@	c #C6C9C9",
"D@	c #C7C9C9",
"E@	c #C5C5C5",
"F@	c #C6C6C6",
"                                                                ",
"                                                                ",
"      . + @ # $ % & * = - ; > , ' > ; - = * ) % $ ! ~ { ]       ",
"    ^ / ( _ : < [ } | 1 2 3 4 5 5 4 3 1 | } 6 [ : : _ 7 8 9     ",
"    0 0 0 0 0 0 0 0 0 0 0 0 0 0 0 0 0 0 0 0 0 0 0 0 0 0 0 0     ",
"    0 0 0 0 0 0 0 0 0 0 0 0 0 0 0 0 0 0 0 0 0 0 0 0 0 0 0 0     ",
"    0 0 a b c d e f 0 0 0 0 0 g h i j k l 0 0 0 0 0 0 0 0 0     ",
"    0 0 m n o p q r 0 0 0 0 0 s t u v w x 0 0 0 0 0 0 0 0 0     ",
"    0 0 y z A B C D 0 0 0 0 0 E F G H I 0 0 0 0 0 0 0 0 0 0     ",
"    0 0 0 J K L M N O 0 0 0 P Q R S T U 0 0 0 0 0 0 0 0 0 0     ",
"    0 0 0 V W X Y Z ` 0  ...+.@.#.$.%.&.*.=.-.=.-.;.0 0 0 0     ",
"    0 0 0 0 >.,.'.).!.0 ~.{.].^./.(._.:.<.[.}.|.1.2.0 0 0 0     ",
"    0 0 0 0 3.4.5.6.7.8.9.0.a.b.b.c.d.e.f.g.h.i.j.k.l.0 0 0     ",
"    0 0 0 0 m.n.o.p.q.r.s.t.u.u.u.v.w.x.y.z.A.B.C.D.E.0 0 0     ",
"    F.0 0 0 0 G.H.I.J.K.L.M.N.O.P.Q.R.y.S.T.U.V.W.X.0 0 0 F.    ",
"    F.0 0 0 0 h Y.Z.`. +.+++@+#+$+%+&+*+=+-+;+>+,+'+0 0 0 F.    ",
"    F.0 0 0 0 )+!+~+{+]+^+/+B (+_+:+<+[+}+|+0 0 0 0 0 0 0 F.    ",
"    F.0 0 0 0 0 1+2+3+4+5+6+7+8+9+0+B.a+b+c+0 0 0 0 0 0 0 F.    ",
"    F.0 0 0 0 0 d+e+f+g+h+i+j+k+l+m+n+o+p+q+0 0 0 0 0 0 0 F.    ",
"    F.0 0 0 0 0 r+s+t+u+v+w+x+y+z+A+B+C+D+E+0 0 0 0 0 0 0 F.    ",
"    F.0 0 0 0 0 F+G+H+I+J+K+L+M+N+O+P+Q+R+S+0 0 0 0 0 0 0 F.    ",
"    F.0 0 0 0 0 0 T+U+V+W+X+Y+Z+`+ @.@+@@@#@0 0 0 0 0 0 0 F.    ",
"    F.0 0 0 0 0 0 $@%@&@*@=@-@;@`+>@,@'@)@!@0 0 0 0 0 0 0 F.    ",
"    F.0 0 0 0 0 0 ~@{@]@^@]@/@0 `+(@_@:@<@[@0 0 0 0 0 0 0 F.    ",
"    F.0 0 0 0 0 0 0 0 0 0 0 0 0 }@|@1@2@3@4@0 0 0 0 0 0 0 F.    ",
"     .0 0 0 0 0 0 0 0 0 0 0 0 0 }@5@6@7@8@9@0 0 0 0 0 0 0  .    ",
"    0@a@a@a@a@a@a@a@a@a@a@a@a@a@b@c@d@e@f@>+l.a@a@a@a@a@a@0@    ",
"    g@h@h@h@h@h@h@h@h@h@h@h@h@h@i@j@k@l@m@n@o@h@h@h@h@h@h@g@    ",
"    p@q@q@q@q@q@q@q@q@q@q@q@r@r@s@t@u@v@w@x@r@q@q@q@q@q@q@p@    ",
"    y@z@z@z@z@z@z@z@z@z@A@A@z@z@z@B@C@C@D@E@A@A@A@A@A@A@z@F@    ",
"                                                                ",
"                                                                "};
